<svg width="1200" height="800" viewBox="0 0 1200 800" fill="none" xmlns="http://www.w3.org/2000/svg">
<g clip-path="url(#clip0_714_3676)">
<rect width="1200" height="800" fill="black"/>
<g opacity="0.5">
<mask id="mask0_714_3676" style="mask-type:luminance" maskUnits="userSpaceOnUse" x="0" y="0" width="1200" height="800">
<path d="M1200 0H0V800H1200V0Z" fill="white"/>
</mask>
<g mask="url(#mask0_714_3676)">
<path d="M1200 0H0V800H1200V0Z" fill="#1E1C26"/>
</g>
<g opacity="0.5">
<mask id="mask1_714_3676" style="mask-type:luminance" maskUnits="userSpaceOnUse" x="0" y="0" width="1200" height="800">
<path d="M1200 0H0V800H1200V0Z" fill="white"/>
</mask>
<g mask="url(#mask1_714_3676)">
<path d="M-26.2 -25.2008C13.1 -17.1008 53.5 -18.3008 93.5 -15.8008C136.7 -13.1008 184.5 -4.10078 219.6 22.9992C260.9 54.8992 264.2 109.199 240.3 153.399C218.6 193.599 180.3 219.299 149.6 251.499C128.7 273.399 108.9 302.699 104.7 333.399C98.2 380.099 145.7 414.799 179.5 372.199C194.9 352.799 199.8 327.199 213.6 306.699C228.4 284.699 249 266.599 272.9 254.999C297.6 242.999 325.4 238.399 352.7 240.699C378.7 242.999 400 257.799 425.9 261.399C445.3 264.099 466.7 260.399 481 246.999C508 221.899 504.6 173.099 501.1 139.799C496.5 97.1992 482.6 55.4992 460.4 18.7992C438.1 -18.2008 403.7 -44.2008 378.9 -79.1008C362.1 -102.901 351.1 -133.301 359.4 -161.301L-26.2 -25.2008Z" fill="#58468C"/>
</g>
</g>
<g opacity="0.5">
<mask id="mask2_714_3676" style="mask-type:luminance" maskUnits="userSpaceOnUse" x="0" y="0" width="1200" height="800">
<path d="M1200 0H0V800H1200V0Z" fill="white"/>
</mask>
<g mask="url(#mask2_714_3676)">
<path d="M297.9 413.3C320.4 425.1 351.6 428.6 372 436.9C469.2 476.6 388 618.2 438.2 687.5C465.8 725.7 518.3 735.4 565.4 736.2C612.5 737 662 732.3 704.6 752.4C751.1 774.3 781.6 826.3 778 877.6L777.7 877.2C824.3 850 866.2 823.8 906.5 787.9C946.8 752.1 980.6 706.8 993.9 654.5C1007.2 602.2 997.6 542.5 961.1 502.7C927.9 466.5 877.1 450 828.8 451.5C772.7 453.2 719.2 481.3 662.6 467C622.4 456.9 588.4 431.5 565.8 396.8C531.2 343.6 468.1 316.6 406.4 312.6C376.6 310.7 343.3 310.1 314.5 319.4C297.8 324.9 282 335.5 274.2 351.3C262.5 375.4 275.6 401.6 297.9 413.3Z" fill="#58468C"/>
</g>
</g>
<mask id="mask3_714_3676" style="mask-type:luminance" maskUnits="userSpaceOnUse" x="0" y="0" width="1200" height="800">
<path d="M1200 0H0V800H1200V0Z" fill="white"/>
</mask>
<g mask="url(#mask3_714_3676)">
<path d="M1149 571C1150.1 571 1151 570.105 1151 569C1151 567.895 1150.1 567 1149 567C1147.9 567 1147 567.895 1147 569C1147 570.105 1147.9 571 1149 571Z" fill="#929BFF"/>
<path d="M1126 571C1127.1 571 1128 570.105 1128 569C1128 567.895 1127.1 567 1126 567C1124.9 567 1124 567.895 1124 569C1124 570.105 1124.9 571 1126 571Z" fill="#929BFF"/>
<path d="M1103 571C1104.1 571 1105 570.105 1105 569C1105 567.895 1104.1 567 1103 567C1101.9 567 1101 567.895 1101 569C1101 570.105 1101.9 571 1103 571Z" fill="#929BFF"/>
<path d="M1080 571C1081.1 571 1082 570.105 1082 569C1082 567.895 1081.1 567 1080 567C1078.9 567 1078 567.895 1078 569C1078 570.105 1078.9 571 1080 571Z" fill="#929BFF"/>
<path d="M1057 571C1058.1 571 1059 570.105 1059 569C1059 567.895 1058.1 567 1057 567C1055.9 567 1055 567.895 1055 569C1055 570.105 1055.9 571 1057 571Z" fill="#929BFF"/>
<path d="M1034 571C1035.1 571 1036 570.105 1036 569C1036 567.895 1035.1 567 1034 567C1032.9 567 1032 567.895 1032 569C1032 570.105 1032.9 571 1034 571Z" fill="#929BFF"/>
<path d="M1011 571C1012.1 571 1013 570.105 1013 569C1013 567.895 1012.1 567 1011 567C1009.9 567 1009 567.895 1009 569C1009 570.105 1009.9 571 1011 571Z" fill="#929BFF"/>
<path d="M988 571C989.105 571 990 570.105 990 569C990 567.895 989.105 567 988 567C986.895 567 986 567.895 986 569C986 570.105 986.895 571 988 571Z" fill="#929BFF"/>
<path d="M965 571C966.105 571 967 570.105 967 569C967 567.895 966.105 567 965 567C963.895 567 963 567.895 963 569C963 570.105 963.895 571 965 571Z" fill="#929BFF"/>
<path d="M942 571C943.105 571 944 570.105 944 569C944 567.895 943.105 567 942 567C940.895 567 940 567.895 940 569C940 570.105 940.895 571 942 571Z" fill="#929BFF"/>
<path d="M919 571C920.105 571 921 570.105 921 569C921 567.895 920.105 567 919 567C917.895 567 917 567.895 917 569C917 570.105 917.895 571 919 571Z" fill="#929BFF"/>
<path d="M896 571C897.105 571 898 570.105 898 569C898 567.895 897.105 567 896 567C894.895 567 894 567.895 894 569C894 570.105 894.895 571 896 571Z" fill="#929BFF"/>
<path d="M873 571C874.105 571 875 570.105 875 569C875 567.895 874.105 567 873 567C871.895 567 871 567.895 871 569C871 570.105 871.895 571 873 571Z" fill="#929BFF"/>
<path d="M850 571C851.105 571 852 570.105 852 569C852 567.895 851.105 567 850 567C848.895 567 848 567.895 848 569C848 570.105 848.895 571 850 571Z" fill="#929BFF"/>
<path d="M827 571C828.105 571 829 570.105 829 569C829 567.895 828.105 567 827 567C825.895 567 825 567.895 825 569C825 570.105 825.895 571 827 571Z" fill="#929BFF"/>
<path d="M804 571C805.105 571 806 570.105 806 569C806 567.895 805.105 567 804 567C802.895 567 802 567.895 802 569C802 570.105 802.895 571 804 571Z" fill="#929BFF"/>
<path d="M1149 546C1150.1 546 1151 545.105 1151 544C1151 542.895 1150.1 542 1149 542C1147.9 542 1147 542.895 1147 544C1147 545.105 1147.9 546 1149 546Z" fill="#929BFF"/>
<path d="M1126 546C1127.1 546 1128 545.105 1128 544C1128 542.895 1127.1 542 1126 542C1124.9 542 1124 542.895 1124 544C1124 545.105 1124.9 546 1126 546Z" fill="#929BFF"/>
<path d="M1103 546C1104.1 546 1105 545.105 1105 544C1105 542.895 1104.1 542 1103 542C1101.9 542 1101 542.895 1101 544C1101 545.105 1101.9 546 1103 546Z" fill="#929BFF"/>
<path d="M1080 546C1081.1 546 1082 545.105 1082 544C1082 542.895 1081.1 542 1080 542C1078.9 542 1078 542.895 1078 544C1078 545.105 1078.9 546 1080 546Z" fill="#929BFF"/>
<path d="M1057 546C1058.1 546 1059 545.105 1059 544C1059 542.895 1058.1 542 1057 542C1055.9 542 1055 542.895 1055 544C1055 545.105 1055.9 546 1057 546Z" fill="#929BFF"/>
<path d="M1034 546C1035.1 546 1036 545.105 1036 544C1036 542.895 1035.1 542 1034 542C1032.9 542 1032 542.895 1032 544C1032 545.105 1032.9 546 1034 546Z" fill="#929BFF"/>
<path d="M1011 546C1012.1 546 1013 545.105 1013 544C1013 542.895 1012.1 542 1011 542C1009.9 542 1009 542.895 1009 544C1009 545.105 1009.9 546 1011 546Z" fill="#929BFF"/>
<path d="M988 546C989.105 546 990 545.105 990 544C990 542.895 989.105 542 988 542C986.895 542 986 542.895 986 544C986 545.105 986.895 546 988 546Z" fill="#929BFF"/>
<path d="M965 546C966.105 546 967 545.105 967 544C967 542.895 966.105 542 965 542C963.895 542 963 542.895 963 544C963 545.105 963.895 546 965 546Z" fill="#929BFF"/>
<path d="M942 546C943.105 546 944 545.105 944 544C944 542.895 943.105 542 942 542C940.895 542 940 542.895 940 544C940 545.105 940.895 546 942 546Z" fill="#929BFF"/>
<path d="M919 546C920.105 546 921 545.105 921 544C921 542.895 920.105 542 919 542C917.895 542 917 542.895 917 544C917 545.105 917.895 546 919 546Z" fill="#929BFF"/>
<path d="M896 546C897.105 546 898 545.105 898 544C898 542.895 897.105 542 896 542C894.895 542 894 542.895 894 544C894 545.105 894.895 546 896 546Z" fill="#929BFF"/>
<path d="M873 546C874.105 546 875 545.105 875 544C875 542.895 874.105 542 873 542C871.895 542 871 542.895 871 544C871 545.105 871.895 546 873 546Z" fill="#929BFF"/>
<path d="M850 546C851.105 546 852 545.105 852 544C852 542.895 851.105 542 850 542C848.895 542 848 542.895 848 544C848 545.105 848.895 546 850 546Z" fill="#929BFF"/>
<path d="M827 546C828.105 546 829 545.105 829 544C829 542.895 828.105 542 827 542C825.895 542 825 542.895 825 544C825 545.105 825.895 546 827 546Z" fill="#929BFF"/>
<path d="M804 546C805.105 546 806 545.105 806 544C806 542.895 805.105 542 804 542C802.895 542 802 542.895 802 544C802 545.105 802.895 546 804 546Z" fill="#929BFF"/>
<path d="M1149 521C1150.1 521 1151 520.105 1151 519C1151 517.895 1150.1 517 1149 517C1147.9 517 1147 517.895 1147 519C1147 520.105 1147.9 521 1149 521Z" fill="#929BFF"/>
<path d="M1126 521C1127.1 521 1128 520.105 1128 519C1128 517.895 1127.1 517 1126 517C1124.9 517 1124 517.895 1124 519C1124 520.105 1124.9 521 1126 521Z" fill="#929BFF"/>
<path d="M1103 521C1104.1 521 1105 520.105 1105 519C1105 517.895 1104.1 517 1103 517C1101.9 517 1101 517.895 1101 519C1101 520.105 1101.9 521 1103 521Z" fill="#929BFF"/>
<path d="M1080 521C1081.1 521 1082 520.105 1082 519C1082 517.895 1081.1 517 1080 517C1078.9 517 1078 517.895 1078 519C1078 520.105 1078.9 521 1080 521Z" fill="#929BFF"/>
<path d="M1057 521C1058.1 521 1059 520.105 1059 519C1059 517.895 1058.1 517 1057 517C1055.9 517 1055 517.895 1055 519C1055 520.105 1055.9 521 1057 521Z" fill="#929BFF"/>
<path d="M1034 521C1035.1 521 1036 520.105 1036 519C1036 517.895 1035.1 517 1034 517C1032.9 517 1032 517.895 1032 519C1032 520.105 1032.9 521 1034 521Z" fill="#929BFF"/>
<path d="M1011 521C1012.1 521 1013 520.105 1013 519C1013 517.895 1012.1 517 1011 517C1009.9 517 1009 517.895 1009 519C1009 520.105 1009.9 521 1011 521Z" fill="#929BFF"/>
<path d="M988 521C989.105 521 990 520.105 990 519C990 517.895 989.105 517 988 517C986.895 517 986 517.895 986 519C986 520.105 986.895 521 988 521Z" fill="#929BFF"/>
<path d="M965 521C966.105 521 967 520.105 967 519C967 517.895 966.105 517 965 517C963.895 517 963 517.895 963 519C963 520.105 963.895 521 965 521Z" fill="#929BFF"/>
<path d="M942 521C943.105 521 944 520.105 944 519C944 517.895 943.105 517 942 517C940.895 517 940 517.895 940 519C940 520.105 940.895 521 942 521Z" fill="#929BFF"/>
<path d="M919 521C920.105 521 921 520.105 921 519C921 517.895 920.105 517 919 517C917.895 517 917 517.895 917 519C917 520.105 917.895 521 919 521Z" fill="#929BFF"/>
<path d="M896 521C897.105 521 898 520.105 898 519C898 517.895 897.105 517 896 517C894.895 517 894 517.895 894 519C894 520.105 894.895 521 896 521Z" fill="#929BFF"/>
<path d="M873 521C874.105 521 875 520.105 875 519C875 517.895 874.105 517 873 517C871.895 517 871 517.895 871 519C871 520.105 871.895 521 873 521Z" fill="#929BFF"/>
<path d="M850 521C851.105 521 852 520.105 852 519C852 517.895 851.105 517 850 517C848.895 517 848 517.895 848 519C848 520.105 848.895 521 850 521Z" fill="#929BFF"/>
<path d="M827 521C828.105 521 829 520.105 829 519C829 517.895 828.105 517 827 517C825.895 517 825 517.895 825 519C825 520.105 825.895 521 827 521Z" fill="#929BFF"/>
<path d="M804 521C805.105 521 806 520.105 806 519C806 517.895 805.105 517 804 517C802.895 517 802 517.895 802 519C802 520.105 802.895 521 804 521Z" fill="#929BFF"/>
<path d="M1149 496C1150.1 496 1151 495.105 1151 494C1151 492.895 1150.1 492 1149 492C1147.9 492 1147 492.895 1147 494C1147 495.105 1147.9 496 1149 496Z" fill="#929BFF"/>
<path d="M1126 496C1127.1 496 1128 495.105 1128 494C1128 492.895 1127.1 492 1126 492C1124.9 492 1124 492.895 1124 494C1124 495.105 1124.9 496 1126 496Z" fill="#929BFF"/>
<path d="M1103 496C1104.1 496 1105 495.105 1105 494C1105 492.895 1104.1 492 1103 492C1101.9 492 1101 492.895 1101 494C1101 495.105 1101.9 496 1103 496Z" fill="#929BFF"/>
<path d="M1080 496C1081.1 496 1082 495.105 1082 494C1082 492.895 1081.1 492 1080 492C1078.9 492 1078 492.895 1078 494C1078 495.105 1078.9 496 1080 496Z" fill="#929BFF"/>
<path d="M1057 496C1058.1 496 1059 495.105 1059 494C1059 492.895 1058.1 492 1057 492C1055.9 492 1055 492.895 1055 494C1055 495.105 1055.9 496 1057 496Z" fill="#929BFF"/>
<path d="M1034 496C1035.1 496 1036 495.105 1036 494C1036 492.895 1035.1 492 1034 492C1032.9 492 1032 492.895 1032 494C1032 495.105 1032.9 496 1034 496Z" fill="#929BFF"/>
<path d="M1011 496C1012.1 496 1013 495.105 1013 494C1013 492.895 1012.1 492 1011 492C1009.9 492 1009 492.895 1009 494C1009 495.105 1009.9 496 1011 496Z" fill="#929BFF"/>
<path d="M988 496C989.105 496 990 495.105 990 494C990 492.895 989.105 492 988 492C986.895 492 986 492.895 986 494C986 495.105 986.895 496 988 496Z" fill="#929BFF"/>
<path d="M965 496C966.105 496 967 495.105 967 494C967 492.895 966.105 492 965 492C963.895 492 963 492.895 963 494C963 495.105 963.895 496 965 496Z" fill="#929BFF"/>
<path d="M942 496C943.105 496 944 495.105 944 494C944 492.895 943.105 492 942 492C940.895 492 940 492.895 940 494C940 495.105 940.895 496 942 496Z" fill="#929BFF"/>
<path d="M919 496C920.105 496 921 495.105 921 494C921 492.895 920.105 492 919 492C917.895 492 917 492.895 917 494C917 495.105 917.895 496 919 496Z" fill="#929BFF"/>
<path d="M896 496C897.105 496 898 495.105 898 494C898 492.895 897.105 492 896 492C894.895 492 894 492.895 894 494C894 495.105 894.895 496 896 496Z" fill="#929BFF"/>
<path d="M873 496C874.105 496 875 495.105 875 494C875 492.895 874.105 492 873 492C871.895 492 871 492.895 871 494C871 495.105 871.895 496 873 496Z" fill="#929BFF"/>
<path d="M850 496C851.105 496 852 495.105 852 494C852 492.895 851.105 492 850 492C848.895 492 848 492.895 848 494C848 495.105 848.895 496 850 496Z" fill="#929BFF"/>
<path d="M827 496C828.105 496 829 495.105 829 494C829 492.895 828.105 492 827 492C825.895 492 825 492.895 825 494C825 495.105 825.895 496 827 496Z" fill="#929BFF"/>
<path d="M804 496C805.105 496 806 495.105 806 494C806 492.895 805.105 492 804 492C802.895 492 802 492.895 802 494C802 495.105 802.895 496 804 496Z" fill="#929BFF"/>
<path d="M1149 471C1150.1 471 1151 470.105 1151 469C1151 467.895 1150.1 467 1149 467C1147.9 467 1147 467.895 1147 469C1147 470.105 1147.9 471 1149 471Z" fill="#929BFF"/>
<path d="M1126 471C1127.1 471 1128 470.105 1128 469C1128 467.895 1127.1 467 1126 467C1124.9 467 1124 467.895 1124 469C1124 470.105 1124.9 471 1126 471Z" fill="#929BFF"/>
<path d="M1103 471C1104.1 471 1105 470.105 1105 469C1105 467.895 1104.1 467 1103 467C1101.9 467 1101 467.895 1101 469C1101 470.105 1101.9 471 1103 471Z" fill="#929BFF"/>
<path d="M1080 471C1081.1 471 1082 470.105 1082 469C1082 467.895 1081.1 467 1080 467C1078.9 467 1078 467.895 1078 469C1078 470.105 1078.9 471 1080 471Z" fill="#929BFF"/>
<path d="M1057 471C1058.1 471 1059 470.105 1059 469C1059 467.895 1058.1 467 1057 467C1055.9 467 1055 467.895 1055 469C1055 470.105 1055.9 471 1057 471Z" fill="#929BFF"/>
<path d="M1034 471C1035.1 471 1036 470.105 1036 469C1036 467.895 1035.1 467 1034 467C1032.9 467 1032 467.895 1032 469C1032 470.105 1032.9 471 1034 471Z" fill="#929BFF"/>
<path d="M1011 471C1012.1 471 1013 470.105 1013 469C1013 467.895 1012.1 467 1011 467C1009.9 467 1009 467.895 1009 469C1009 470.105 1009.9 471 1011 471Z" fill="#929BFF"/>
<path d="M988 471C989.105 471 990 470.105 990 469C990 467.895 989.105 467 988 467C986.895 467 986 467.895 986 469C986 470.105 986.895 471 988 471Z" fill="#929BFF"/>
<path d="M965 471C966.105 471 967 470.105 967 469C967 467.895 966.105 467 965 467C963.895 467 963 467.895 963 469C963 470.105 963.895 471 965 471Z" fill="#929BFF"/>
<path d="M942 471C943.105 471 944 470.105 944 469C944 467.895 943.105 467 942 467C940.895 467 940 467.895 940 469C940 470.105 940.895 471 942 471Z" fill="#929BFF"/>
<path d="M919 471C920.105 471 921 470.105 921 469C921 467.895 920.105 467 919 467C917.895 467 917 467.895 917 469C917 470.105 917.895 471 919 471Z" fill="#929BFF"/>
<path d="M896 471C897.105 471 898 470.105 898 469C898 467.895 897.105 467 896 467C894.895 467 894 467.895 894 469C894 470.105 894.895 471 896 471Z" fill="#929BFF"/>
<path d="M873 471C874.105 471 875 470.105 875 469C875 467.895 874.105 467 873 467C871.895 467 871 467.895 871 469C871 470.105 871.895 471 873 471Z" fill="#929BFF"/>
<path d="M850 471C851.105 471 852 470.105 852 469C852 467.895 851.105 467 850 467C848.895 467 848 467.895 848 469C848 470.105 848.895 471 850 471Z" fill="#929BFF"/>
<path d="M827 471C828.105 471 829 470.105 829 469C829 467.895 828.105 467 827 467C825.895 467 825 467.895 825 469C825 470.105 825.895 471 827 471Z" fill="#929BFF"/>
<path d="M804 471C805.105 471 806 470.105 806 469C806 467.895 805.105 467 804 467C802.895 467 802 467.895 802 469C802 470.105 802.895 471 804 471Z" fill="#929BFF"/>
</g>
<mask id="mask4_714_3676" style="mask-type:luminance" maskUnits="userSpaceOnUse" x="0" y="0" width="1200" height="800">
<path d="M1200 0H0V800H1200V0Z" fill="white"/>
</mask>
<g mask="url(#mask4_714_3676)">
<path d="M-145.2 -24.9997C-107.1 -64.3997 -37.8999 -66.4997 2.90005 -29.4997C45.5001 9.20031 52.6 76.0003 92.3 117.7C130.4 157.7 190.6 166.1 245.1 161.7C299.6 157.3 353.3 142.4 407.9 145.1C462.5 147.8 521.3 173.8 541.8 225.4C559.5 270.1 544.4 320.1 535.6 367.3C526.9 414.5 528.7 472 567.4 499.9C612.9 532.8 670.5 504.5 720.1 501.7C804.3 497.1 888.8 536 935.3 607.2C982.8 679.8 986.4 779.5 944.3 855" stroke="#9254FF" stroke-width="2" stroke-miterlimit="10"/>
<path d="M-134.1 -32.2991C-95.4 -69.9991 -27 -71.2991 13.8 -34.6991C47.1 -4.89913 59.6 41.5009 81.9 80.4009C88.3 91.5009 95.4 102.001 104 111.301C141.5 151.601 199.3 161.901 251.2 159.901C286.7 158.501 321.6 152.501 356.5 150.201C372.7 149.101 388.8 148.901 405.1 150.501C425.8 152.501 447.4 158.101 467.5 167.201C497.5 180.801 523.7 201.901 536.7 231.701C540.1 239.401 542.4 247.201 544 255.201C551.3 292.001 541.6 332.001 535.4 370.601C534.4 376.701 533.6 383.001 532.9 389.401C528.8 432.101 533.4 478.101 565.1 503.001C570.6 507.301 576.2 510.601 582.1 513.101C604.4 522.801 629.1 521.301 654.2 517.701C674.3 514.801 694.7 510.401 714 509.501C718.7 509.301 723.4 509.201 728.1 509.201C753.6 509.301 779 513.001 803.2 520.301C854 535.801 899.4 567.701 929.4 612.801C938.6 626.601 946.2 641.501 952.1 657.001C977.1 722.201 972.9 798.901 938.8 859.601" stroke="#9156FF" stroke-width="2" stroke-miterlimit="10"/>
<path d="M-122.9 -39.6005C-83.6999 -75.5005 -16.0999 -76.1005 24.8001 -39.9005C58.2001 -10.5005 71.5001 35.1995 93.9001 73.9995C100.3 84.9995 107.3 95.4995 115.8 104.899C152.6 145.599 208.2 157.7 257.5 158.1C291.2 158.3 324.1 154.199 356.8 153.399C372 152.999 387.1 153.5 402.5 155.7C422 158.5 442.5 164.899 462.2 174.399C491.5 188.699 518.1 209.099 531.9 237.799C535.5 245.199 538.1 252.799 539.9 260.499C548.5 296.099 540.7 335.299 535.4 373.799C534.6 379.899 533.8 386.199 533.3 392.599C529.8 435.299 533.2 480.8 563.2 506.2C568.3 510.6 573.7 514 579.3 516.7C600.5 527.1 624.3 526.7 648.8 524.2C668.5 522.1 688.9 518.2 708.2 517.4C712.9 517.2 717.6 517.099 722.3 517.099C747.7 517.199 773 520.499 797.2 527.599C847.9 542.399 893.5 573.899 923.7 618.599C933 632.299 940.6 647 946.6 662.5C971.9 727.4 967.8 804 933.5 864.4" stroke="#9158FF" stroke-width="2" stroke-miterlimit="10"/>
<path d="M-111.7 -46.8993C-71.9 -80.9993 -5.19995 -80.7993 35.8 -45.0993C69.3 -15.9993 83.5 28.9007 105.8 67.5007C112.2 78.5007 119.2 89.0007 127.5 98.4007C163.6 139.401 216.9 153.401 263.6 156.201C295.5 158.001 326.4 155.801 356.9 156.601C371.1 156.901 385.2 158.101 399.6 161.001C417.9 164.701 437.4 171.801 456.6 181.701C485.3 196.601 512.1 216.301 526.7 244.001C530.5 251.101 533.3 258.401 535.4 265.801C545.3 300.201 539.3 338.601 535 377.001C534.3 383.101 533.7 389.301 533.3 395.701C530.5 438.301 532.7 483.301 560.8 509.301C565.6 513.801 570.7 517.301 575.9 520.201C595.9 531.201 618.8 532.101 642.9 530.501C662.2 529.301 682.6 525.801 701.8 525.101C706.5 524.901 711.2 524.901 715.8 524.901C741.2 525.001 766.4 528.001 790.5 534.701C841.2 548.801 887 579.901 917.3 624.101C926.6 637.701 934.4 652.301 940.4 667.701C965.9 732.201 961.9 808.801 927.6 869.001" stroke="#905AFF" stroke-width="2" stroke-miterlimit="10"/>
<path d="M-100.5 -54.1989C-60.2 -86.4989 5.70001 -85.5989 46.9 -50.2989C80.5 -21.4989 95.5 22.6011 117.9 61.1011C124.3 72.1011 131.2 82.5011 139.4 92.0011C174.9 133.301 225.8 149.201 269.9 154.401C300.1 157.801 329 157.601 357.2 159.801C370.4 160.801 383.4 162.601 397 166.201C414.2 170.701 432.6 178.601 451.4 188.901C479.5 204.401 506.6 223.501 521.9 250.101C525.9 257.001 528.9 264.001 531.3 271.101C542.5 304.301 538.4 342.001 535 380.201C534.4 386.201 534 392.401 533.7 398.801C531.6 441.401 532.5 485.801 558.9 512.401C563.4 516.901 568.2 520.701 573.1 523.701C592 535.301 614 537.401 637.5 536.901C656.3 536.501 676.8 533.501 696 533.001C700.7 532.901 705.4 532.801 710 532.801C735.3 533.001 760.4 535.501 784.6 541.901C835.3 555.301 881.2 585.901 911.7 629.801C921.1 643.301 928.9 657.801 935 673.101C960.8 737.301 956.8 813.701 922.4 873.701" stroke="#905DFF" stroke-width="2" stroke-miterlimit="10"/>
<path d="M-89.2999 -61.4991C-48.3999 -92.0991 16.6001 -90.2991 57.9001 -55.4991C91.6001 -27.0991 107.5 16.3009 129.9 54.6009C136.3 65.5009 143.2 75.9009 151.2 85.5009C186 127.201 234.7 145.001 276.2 152.501C304.6 157.601 331.5 159.201 357.6 163.001C369.8 164.701 381.8 167.201 394.4 171.501C410.4 176.901 427.7 185.501 446.1 196.201C473.5 212.301 500.9 230.801 517.1 256.301C521.3 262.901 524.6 269.601 527.3 276.401C539.8 308.401 537.6 345.301 535.1 383.401C534.7 389.401 534.4 395.601 534.1 401.901C532.7 444.401 532.4 488.301 557 515.401C561.2 520.001 565.6 523.901 570.3 527.101C588.1 539.301 609.1 542.601 632.2 543.101C650.6 543.501 671.1 541.001 690.3 540.601C695 540.501 699.6 540.501 704.3 540.501C729.5 540.701 754.6 542.901 778.7 548.901C829.3 561.601 875.4 591.801 906.2 635.301C915.7 648.701 923.5 663.101 929.7 678.301C955.8 742.201 951.8 818.501 917.3 878.201" stroke="#8F5FFF" stroke-width="2" stroke-miterlimit="10"/>
<path d="M-78.2 -68.8005C-36.7999 -97.6005 27.4 -95.1005 68.8 -60.7005C102.7 -32.6005 119.4 9.99954 141.8 48.1995C148.2 59.0995 155 69.4995 162.9 79.0995C197 121.1 243.4 140.8 282.3 150.6C308.9 157.4 333.7 160.9 357.7 166.1C368.9 168.6 379.9 171.7 391.5 176.6C406.3 182.9 422.6 192.2 440.5 203.4C467.3 220.2 494.9 238 511.9 262.4C516.3 268.7 519.8 275.2 522.8 281.7C536.6 312.5 536.3 348.7 534.8 386.5C534.6 392.5 534.3 398.6 534.2 404.9C533.4 447.3 531.9 490.7 554.7 518.4C558.6 523.1 562.7 527.1 567.1 530.5C583.8 543.4 603.9 547.9 626.4 549.4C644.4 550.6 664.8 548.6 684 548.4C688.7 548.3 693.3 548.3 697.9 548.4C723 548.6 748 550.399 772.1 556.099C822.7 568.099 869 597.9 899.9 641C909.4 654.3 917.4 668.6 923.6 683.7C949.9 747.2 946 823.5 911.4 882.9" stroke="#8F61FF" stroke-width="2" stroke-miterlimit="10"/>
<path d="M-67 -76.1987C-25 -103.199 38.4 -99.8987 79.8 -65.9987C113.8 -38.2987 131.3 3.60132 153.8 41.6013C160.2 52.4013 167 62.9013 174.7 72.5013C208.2 114.901 252.2 136.401 288.6 148.601C313.4 157.001 336.2 162.401 358 169.201C368.2 172.401 378.2 176.201 388.9 181.801C402.5 188.901 417.7 199.001 435.2 210.601C461.4 228.001 489.3 245.201 507 268.501C511.6 274.501 515.4 280.701 518.6 287.001C533.8 316.601 535.3 352.001 534.7 389.701C534.6 395.601 534.5 401.801 534.5 408.001C534.4 450.401 531.7 493.101 552.7 521.501C556.3 526.301 560.1 530.401 564.2 534.001C579.7 547.501 598.9 553.201 621 555.701C638.6 557.701 659 556.201 678.2 556.101C682.9 556.101 687.5 556.101 692.1 556.101C717.2 556.301 742.1 557.801 766.1 563.201C816.7 574.501 863.1 603.901 894.2 646.601C903.8 659.701 911.8 674.001 918.2 689.001C944.8 752.201 940.9 828.401 906.2 887.501" stroke="#8E63FF" stroke-width="2" stroke-miterlimit="10"/>
<path d="M-55.7999 -83.4993C-13.2999 -108.799 49.3001 -104.699 90.9001 -71.1993C125 -43.7993 143.4 -2.69929 165.9 35.1007C172.3 45.9007 179 56.4007 186.5 66.1007C219.3 108.801 261 132.201 294.8 146.801C317.8 156.801 338.5 164.101 358.3 172.401C367.4 176.201 376.5 180.801 386.2 187.001C398.6 195.001 412.8 205.801 429.9 217.801C455.5 235.801 483.6 252.401 502.2 274.601C507 280.401 511 286.201 514.5 292.201C531 320.701 534.4 355.201 534.7 392.801C534.8 398.701 534.8 404.801 534.8 411.001C535.3 453.301 531.5 495.501 550.6 524.501C553.8 529.401 557.4 533.701 561.2 537.401C575.6 551.501 593.9 558.401 615.4 562.001C632.6 564.801 653 563.801 672.2 563.801C676.9 563.801 681.5 563.801 686 563.901C711 564.101 735.8 565.201 759.9 570.301C810.4 581.001 857 609.901 888.4 652.101C898.1 665.101 906.2 679.301 912.6 694.201C939.5 757.101 935.6 833.101 900.9 892.001" stroke="#8E65FF" stroke-width="2" stroke-miterlimit="10"/>
<path d="M-44.6 -90.7989C-1.49998 -114.299 60.2 -109.399 101.9 -76.3989C136.1 -49.3989 155.4 -8.99891 177.9 28.7011C184.3 39.5011 191 49.9011 198.3 59.7011C230.4 102.701 269.8 128.001 301.1 145.001C322.4 156.601 340.9 165.801 358.6 175.601C366.7 180.101 374.8 185.301 383.5 192.301C394.7 201.201 407.8 212.701 424.5 225.101C449.4 243.701 477.9 259.701 497.2 280.701C502.2 286.201 506.5 291.801 510.2 297.501C528.1 324.801 533.2 358.601 534.5 396.001C534.7 401.901 534.8 407.901 535 414.201C536.2 456.501 531.1 498.101 548.5 527.701C551.4 532.701 554.6 537.101 558.2 541.001C571.5 555.701 588.9 563.801 609.8 568.501C626.6 572.201 647 571.601 666.2 571.801C670.8 571.801 675.5 571.901 680 571.901C704.9 572.201 729.7 572.901 753.7 577.601C804.2 587.601 851 616.001 882.5 657.901C892.2 670.801 900.4 684.901 906.9 699.701C934.1 762.201 930.2 838.201 895.4 896.801" stroke="#8D67FF" stroke-width="2" stroke-miterlimit="10"/>
<path d="M-33.5 -98.0993C10.1 -119.799 71 -114.199 112.8 -81.5993C147.1 -54.8993 167.2 -15.2992 189.8 22.2008C196.3 32.9008 202.8 43.4008 210 53.2008C241.5 96.6008 278.5 123.701 307.2 143.101C326.7 156.301 343.1 167.301 358.7 178.801C365.7 184.001 372.9 189.901 380.7 197.501C390.7 207.201 402.8 219.501 419 232.301C443.3 251.601 472 266.801 492.1 286.801C497.3 292.001 501.9 297.301 505.9 302.701C525.2 328.801 532.1 361.801 534.4 399.101C534.7 404.901 535 411.001 535.3 417.201C537.1 459.401 530.9 500.401 546.4 530.601C549 535.701 551.9 540.201 555.2 544.301C567.3 559.601 583.8 569.001 604.3 574.601C620.7 579.101 641.1 579.001 660.2 579.301C664.8 579.401 669.4 579.401 673.9 579.501C698.7 579.801 723.4 580.101 747.4 584.501C797.9 593.801 844.8 621.801 876.5 663.301C886.3 676.101 894.6 690.001 901.1 704.801C928.5 767.001 924.7 842.901 889.8 901.201" stroke="#8D69FF" stroke-width="2" stroke-miterlimit="10"/>
<path d="M-22.2999 -105.4C21.9001 -125.4 81.9001 -118.9 123.8 -86.7999C158.2 -60.5 179.2 -21.6 201.8 15.8C208.3 26.5 214.8 36.9 221.8 46.8C252.6 90.5 287.4 119.4 313.4 141.3C331.1 156.2 345.5 168.9 359 182C365 187.8 371.1 194.5 378 202.8C386.9 213.4 397.9 226.4 413.6 239.6C437.3 259.5 466.3 274.1 487.2 293C492.6 297.9 497.4 303 501.7 308.1C522.4 333 531.1 365.3 534.3 402.4C534.8 408.2 535.2 414.2 535.5 420.4C538 462.6 530.6 503 544.3 533.8C546.6 538.9 549.2 543.6 552.2 547.9C563.2 563.8 578.8 574.4 598.7 581.1C614.7 586.4 635 586.8 654.2 587.3C658.8 587.4 663.4 587.5 667.9 587.5C692.7 587.8 717.3 587.8 741.3 591.8C791.7 600.4 838.8 628 870.7 669.1C880.6 681.8 888.9 695.6 895.5 710.3C923.2 772.2 919.4 847.9 884.4 906" stroke="#8C6BFF" stroke-width="2" stroke-miterlimit="10"/>
<path d="M-11.1 -112.699C33.6 -130.899 92.8 -123.699 134.9 -91.999C169.5 -65.999 191.3 -27.899 213.9 9.30099C220.4 19.901 226.8 30.401 233.7 40.301C263.8 84.301 296.3 115.101 319.8 139.401C335.7 155.901 348 170.401 359.4 185.201C364.4 191.601 369.5 199.101 375.5 208.001C383.2 219.501 393.1 233.201 408.5 246.801C431.6 267.301 460.9 281.301 482.5 299.101C488.2 303.801 493.2 308.501 497.7 313.401C519.8 337.101 530.3 368.601 534.4 405.601C535 411.401 535.5 417.301 536 423.501C539.2 465.601 530.6 505.401 542.4 536.901C544.4 542.101 546.7 546.901 549.4 551.401C559.3 567.801 573.9 579.701 593.4 587.401C609 593.501 629.3 594.401 648.5 595.001C653.1 595.101 657.7 595.201 662.2 595.301C686.9 595.601 711.4 595.201 735.4 599.001C785.8 606.901 833.1 634.101 865.2 674.801C875.1 687.401 883.5 701.101 890.2 715.701C918.2 777.201 914.4 852.901 879.4 910.701" stroke="#8C6EFF" stroke-width="2" stroke-miterlimit="10"/>
<path d="M0.100098 -119.999C45.4001 -136.399 103.8 -128.399 145.9 -97.1992C180.6 -71.4992 203.2 -34.1992 225.9 2.80083C232.4 13.4008 238.8 23.8008 245.5 33.8008C275 78.2008 305.1 110.801 326 137.501C340.2 155.601 350.3 171.801 359.6 188.301C363.6 195.401 367.7 203.601 372.7 213.201C379.2 225.601 388.1 240.001 403 254.001C425.4 275.101 455 288.501 477.4 305.201C483.3 309.601 488.5 314.101 493.3 318.601C516.8 341.001 529 371.801 534.1 408.601C534.9 414.301 535.5 420.301 536.1 426.401C540 468.401 530.2 507.701 540.2 539.801C541.9 545.101 543.8 550.001 546.2 554.701C555 571.701 568.7 584.901 587.6 593.601C602.7 600.501 623.1 601.901 642.2 602.701C646.8 602.901 651.4 603.001 655.8 603.001C680.4 603.301 704.9 602.601 728.8 606.001C779.2 613.201 826.6 640.001 858.9 680.301C868.9 692.801 877.4 706.401 884.1 721.001C912.4 782.201 908.7 857.801 873.5 915.301" stroke="#8B70FF" stroke-width="2" stroke-miterlimit="10"/>
<path d="M11.2001 -127.3C57.0001 -141.9 114.6 -133.2 156.8 -102.4C191.6 -77.1005 215.1 -40.5005 237.8 -3.60049C244.3 6.99951 250.6 17.3995 257.2 27.3995C286 72.0995 313.8 106.6 332.2 135.7C344.6 155.4 352.8 173.3 359.9 191.6C362.9 199.2 366 208.3 370 218.5C375.3 231.8 383.1 246.999 397.6 261.299C419.4 283.099 449.3 295.7 472.4 311.4C478.5 315.5 484 319.7 489 324C513.9 345.2 527.9 375.3 533.9 411.9C534.8 417.6 535.6 423.499 536.3 429.599C540.8 471.599 529.9 510.2 538 542.9C539.3 548.3 541 553.3 543.1 558.2C550.8 575.8 563.6 590.2 582 599.9C596.7 607.7 617.1 609.5 636.2 610.4C640.8 610.6 645.4 610.699 649.8 610.799C674.3 611.199 698.7 609.999 722.7 613.099C773 619.599 820.6 645.899 853.1 685.799C863.2 698.099 871.7 711.7 878.5 726.2C907 787.1 903.4 862.6 868.1 919.8" stroke="#8B72FF" stroke-width="2" stroke-miterlimit="10"/>
<path d="M22.4 -134.599C68.8 -147.499 125.5 -137.899 167.8 -107.599C202.7 -82.5993 227.1 -46.7993 249.8 -10.0993C256.3 0.400696 262.6 10.9007 268.9 21.0007C297 66.0007 322.6 102.301 338.3 133.901C348.9 155.201 355.1 174.801 360 194.801C362 203.101 364 212.901 367.2 223.801C371.3 237.901 378.1 253.901 392.2 268.601C413.4 291.001 443.5 303.001 467.5 317.601C473.8 321.401 479.6 325.301 484.9 329.301C511.2 349.301 526.9 378.601 534 415.101C535.1 420.801 536 426.701 536.7 432.701C541.9 474.601 529.8 512.701 536.1 546.001C537.1 551.501 538.5 556.701 540.3 561.701C546.9 579.901 558.7 595.501 576.6 606.301C590.9 614.901 611.2 617.201 630.4 618.201C635 618.401 639.5 618.601 643.9 618.601C668.3 619.001 692.6 617.501 716.6 620.201C766.9 626.001 814.7 651.901 847.3 691.401C857.4 703.601 866.1 717.101 872.9 731.501C901.7 792.001 898.1 867.401 862.7 924.401" stroke="#8A74FF" stroke-width="2" stroke-miterlimit="10"/>
<path d="M33.6001 -141.9C80.5001 -153 136.4 -142.7 178.9 -112.8C213.9 -88.2 239.1 -53.1 261.8 -16.5C268.3 -5.99997 274.5 4.40004 280.7 14.6C308.2 60 331.4 98.1 344.6 132.1C353.5 155 357.8 176.3 360.3 198.1C361.3 207 362.3 217.6 364.5 229.1C367.4 244.1 373.1 260.8 386.8 276C407.4 299 437.8 310.4 462.5 323.9C469 327.5 475 331.1 480.6 334.8C508.3 353.5 525.8 382.1 533.8 418.5C535 424.1 536 430 536.9 436.1C542.8 478 529.5 515.4 534 549.4C534.7 554.9 535.8 560.3 537.3 565.5C542.8 584.3 553.7 601.1 571.1 612.9C585 622.3 605.3 625.1 624.4 626.3C629 626.6 633.5 626.7 637.9 626.8C662.3 627.2 686.5 625.3 710.4 627.7C760.7 632.8 808.6 658.3 841.5 697.4C851.7 709.5 860.4 722.9 867.3 737.2C896.4 797.4 892.8 872.7 857.3 929.4" stroke="#8A76FF" stroke-width="2" stroke-miterlimit="10"/>
<path d="M44.8 -149.199C92.3 -158.499 147.3 -147.399 189.9 -117.999C225.1 -93.6992 251.1 -59.3992 273.8 -22.9992C280.3 -12.5992 286.5 -2.0992 292.5 8.1008C319.3 53.8008 340.2 93.8008 350.8 130.201C357.9 154.701 360.3 177.801 360.5 201.201C360.6 210.701 360.5 222.101 361.8 234.301C363.5 250.201 368.2 267.601 381.4 283.201C401.3 306.801 432.1 317.601 457.5 330.001C464.2 333.301 470.5 336.601 476.3 340.101C505.5 357.601 524.7 385.501 533.6 421.701C535 427.301 536.1 433.101 537.1 439.201C543.8 481.001 529.2 517.901 531.8 552.501C532.2 558.101 533 563.601 534.2 569.001C538.6 588.401 548.5 606.501 565.4 619.301C578.9 629.501 599.2 632.801 618.3 634.101C622.9 634.401 627.4 634.601 631.8 634.601C656.1 635.001 680.2 632.801 704.2 634.901C754.4 639.301 802.5 664.401 835.6 703.101C845.9 715.101 854.7 728.401 861.6 742.601C891 802.401 887.4 877.701 851.9 934.101" stroke="#8978FF" stroke-width="2" stroke-miterlimit="10"/>
<path d="M56 -156.499C104 -164.099 158.3 -152.199 200.9 -123.199C236.2 -99.2987 263.1 -65.6987 285.8 -29.3987C292.3 -18.9987 298.4 -8.59866 304.3 1.70134C330.4 47.8013 349.1 89.5013 357 128.401C362.3 154.501 362.9 179.401 360.8 204.501C360 214.601 358.7 226.801 359.1 239.601C359.6 256.401 363.3 274.501 376 290.501C395.3 314.801 426.3 324.801 452.6 336.201C459.5 339.201 466.1 342.201 472.1 345.401C502.7 361.601 523.6 388.801 533.5 424.901C535 430.501 536.3 436.301 537.3 442.301C544.6 484.001 528.9 520.301 529.7 555.501C529.8 561.201 530.3 566.801 531.2 572.301C534.5 592.301 543.5 611.601 559.9 625.401C573 636.401 593.3 640.201 612.4 641.701C617 642.001 621.5 642.201 625.8 642.301C650 642.801 674.1 640.101 698 641.901C748.2 645.601 796.5 670.301 829.7 708.601C840 720.501 848.9 733.601 855.9 747.801C885.5 807.301 882 882.501 846.4 938.601" stroke="#897AFF" stroke-width="2" stroke-miterlimit="10"/>
<path d="M67.1001 -163.901C115.7 -169.701 169.1 -157.101 211.8 -128.501C247.2 -104.901 274.9 -72.1005 297.7 -36.0005C304.3 -25.6005 310.3 -15.2005 316 -4.9005C341.5 41.4995 357.8 85.0995 363.2 126.399C366.8 154.099 365.4 180.799 361 207.499C359.2 218.299 356.9 231.199 356.3 244.699C355.5 262.399 358.2 281.199 370.6 297.599C389.3 322.499 420.6 331.899 447.6 342.199C454.7 344.899 461.5 347.699 467.8 350.599C499.8 365.499 522.4 392.1 533.3 427.9C535 433.4 536.4 439.2 537.5 445.2C545.5 486.9 528.7 522.6 527.5 558.4C527.3 564.2 527.5 569.899 528.1 575.599C530.4 596.099 538.4 616.699 554.2 631.599C566.9 643.499 587.2 647.799 606.2 649.299C610.8 649.699 615.3 649.9 619.6 650C643.7 650.5 667.7 647.5 691.6 648.9C741.8 651.9 790.2 676.1 823.7 714C834.1 725.8 843 738.8 850.2 752.9C880.1 812.1 876.6 887.1 840.9 943" stroke="#887CFF" stroke-width="2" stroke-miterlimit="10"/>
<path d="M78.3 -171.199C127.4 -175.199 180 -161.799 222.9 -133.699C258.4 -110.499 287 -78.3988 309.8 -42.4988C316.4 -32.1988 322.3 -21.7988 327.9 -11.3988C352.7 35.3012 366.9 80.8012 369.5 124.501C371.4 153.801 368.1 182.401 361.3 210.601C358.6 222.001 355.2 235.701 353.7 249.801C351.7 268.301 353.4 287.901 365.3 304.701C383.4 330.201 415 338.901 442.7 348.201C450.1 350.601 457.1 353.101 463.6 355.701C497 369.301 521.4 395.201 533.3 430.901C535.1 436.401 536.6 442.101 537.9 448.101C546.6 489.701 528.6 524.801 525.6 561.301C525.1 567.201 524.9 573.001 525.3 578.901C526.5 600.001 533.5 621.901 548.9 637.701C561.2 650.401 581.4 655.201 600.5 656.901C605 657.301 609.5 657.501 613.8 657.601C637.9 658.101 661.8 654.701 685.7 655.801C735.8 658.201 784.4 681.901 818.1 719.401C828.6 731.101 837.6 744.001 844.8 758.001C875 816.801 871.5 891.801 835.7 947.401" stroke="#887FFF" stroke-width="2" stroke-miterlimit="10"/>
<path d="M89.5 -178.5C139.2 -180.7 190.9 -166.5 233.9 -138.9C269.5 -116 299 -84.7004 321.8 -48.9004C328.4 -38.6004 334.3 -28.2004 339.7 -17.8004C363.8 29.2996 375.7 76.5996 375.8 122.7C375.9 153.6 370.7 184 361.7 213.9C358 226 353.5 240.4 351.1 255.2C347.9 274.6 348.5 294.9 360 312.1C377.4 338.2 409.3 346.3 437.9 354.5C445.5 356.7 452.8 358.8 459.6 361.2C494.5 373.5 520.6 398.8 533.4 434.3C535.4 439.8 537 445.5 538.3 451.4C547.7 493 528.6 527.5 523.6 564.6C522.8 570.6 522.3 576.5 522.4 582.6C522.5 604.3 528.6 627.4 543.4 644.3C555.2 657.8 575.5 663.1 594.6 664.9C599.1 665.3 603.6 665.6 607.9 665.7C631.9 666.2 655.7 662.5 679.6 663.2C729.7 664.9 778.5 688.2 812.3 725.3C822.8 736.8 831.9 749.7 839.2 763.6C869.6 822.1 866.2 897 830.4 952.4" stroke="#8781FF" stroke-width="2" stroke-miterlimit="10"/>
<path d="M100.7 -185.8C151 -186.3 201.8 -171.3 244.9 -144.1C280.6 -121.5 310.9 -91.0004 333.8 -55.4004C340.4 -45.2004 346.2 -34.8004 351.5 -24.2004C375 23.1996 384.5 72.3996 382 120.9C380.3 153.4 373.2 185.7 361.9 217.1C357.3 229.9 351.7 244.9 348.3 260.4C343.9 280.7 343.5 301.7 354.5 319.3C371.3 346.1 403.5 353.5 432.8 360.6C440.6 362.5 448.1 364.3 455.2 366.5C491.5 377.5 519.3 402.1 533.1 437.5C535.2 442.9 537 448.6 538.4 454.5C548.4 496 528.3 530 521.4 567.7C520.3 573.7 519.5 579.9 519.3 586.1C518.4 608.4 523.4 632.7 537.8 650.7C549.2 665 569.5 670.8 588.5 672.7C593 673.2 597.5 673.4 601.8 673.5C625.7 674 649.5 669.9 673.3 670.4C723.4 671.4 772.3 694.3 806.3 731C816.9 742.4 826.1 755.2 833.4 769C864.1 827.2 860.7 902 824.8 957.1" stroke="#8783FF" stroke-width="2" stroke-miterlimit="10"/>
<path d="M111.8 -193.1C204.8 -190.7 295.2 -140 345.7 -61.8996C402.1 25.4004 400.5 127.1 362 220.2C349.2 251.3 330.3 294.8 349 326.5C369.5 361.2 416 362.8 450.8 371.7C494.2 382.9 527 413 538.5 457.5C550.9 505.6 520.2 542.8 516.1 589.4C514.1 612.3 518.2 637.8 532 656.8C545.6 675.5 573.4 680.6 595.5 681.2C619.3 681.8 643 677.3 666.9 677.4C732.5 677.8 796.6 716.4 827.5 774.2C858.5 832 855.1 906.7 819.1 961.6" stroke="#8685FF" stroke-width="2" stroke-miterlimit="10"/>
<path d="M103 -189C150.5 -188.2 197.4 -175.6 239.1 -153.1C279.9 -131.1 315.8 -99.6 341.5 -60.8C361.1 -31.3 373.9 0.200012 380.3 32.7C386.4 63.4 386.8 94.7 382.4 125.6C379.1 148.8 373 171.7 364.8 194.3C361.4 203.7 357.6 213 353.5 222.3C348.4 233.7 342.5 246.8 338.1 260.4C330.5 283.6 326.8 308.9 338.6 329.2C351.4 351.1 375 360.1 399.2 365.7C413.5 369 428 371.1 441.1 374.1C452.9 376.9 464 380.9 474.1 386.2C496.9 398.2 515 416.5 525.8 440.8C527.9 445.4 529.7 450.3 531.2 455.3C539.4 482.6 533.3 507 525.9 531.9C520.6 549.6 514.7 567.4 513.1 586.9C513 587.6 513 588.3 512.9 589C511.4 611.5 515.4 636.3 528.9 654.8C538.1 667.4 553.6 674 569.5 677.1C577.7 678.7 586.1 679.3 593.8 679.3C602.5 679.4 611.2 678.7 619.9 677.8C635.4 676.2 650.7 673.9 666.1 673.4C684.3 672.8 702.4 675 719.8 679.6C751.9 688.1 781.9 705.2 805.1 729.5C815.2 740 823.9 751.9 831 764.7C833.7 769.7 836.2 774.8 838.4 780C862.5 836.3 856.5 904.9 822.3 955.7" stroke="#8B88FB" stroke-width="2" stroke-miterlimit="10"/>
<path d="M94.1001 -185C142.2 -184.6 189.7 -172.9 232.2 -151.2C273.7 -129.9 310.8 -98.8 337.2 -60C357.3 -30.5 370.5 1.19999 376.7 34.4C382.6 65.5 382.4 97.2 377 128.1C372.9 151.3 366 174 357 196.3C353.3 205.6 349.2 214.8 344.8 224C339.3 235.4 333.1 248.4 328.4 262C320.4 285.1 316.1 310.9 328 331.5C340.7 353.6 364.7 362.8 388.9 368.2C403.3 371.4 417.9 373.3 431.1 376C443 378.5 454.1 382.2 464.4 387C487.5 398 506 415.2 517.7 438.5C520 442.9 522 447.6 523.7 452.5C532.9 479 528.2 503.3 521.6 528.3C516.9 546.1 511.4 564.1 509.9 583.6C509.8 584.3 509.8 585 509.8 585.7C508.4 608.3 512.2 633.4 525.8 652C535.2 664.9 551 671.7 567.3 674.6C575.7 676.1 584.2 676.7 592.1 676.6C601 676.5 609.9 675.7 618.7 674.6C634.4 672.7 649.9 669.9 665.5 668.8C683.9 667.5 702.1 668.8 719.7 672.6C752.2 679.6 783.3 695.1 807.6 719.2C818.1 729.6 827.2 741.6 834.6 754.6C837.4 759.6 840 764.8 842.3 770.1C867.4 827.3 861.1 897.8 825.6 949.2" stroke="#8F8BF6" stroke-width="2" stroke-miterlimit="10"/>
<path d="M85.2001 -180.9C133.8 -180.9 182 -170.1 225.3 -149.1C267.6 -128.6 305.7 -97.8004 332.9 -59.0004C353.5 -29.6004 367 2.4996 373.1 36.3996C378.8 67.8996 377.9 99.9996 371.6 130.9C366.8 154.1 359 176.5 349.2 198.6C345.1 207.8 340.8 217 336.1 226.1C330.2 237.5 323.7 250.4 318.7 264.1C310.3 287.1 305.5 313.5 317.3 334.3C330 356.5 354.3 366 378.6 371.2C393.1 374.3 407.8 376 421.1 378.4C433.1 380.6 444.3 383.9 454.6 388.4C478 398.5 497 414.4 509.6 436.8C512 441.1 514.2 445.6 516.1 450.4C526.3 476.1 523 500.3 517.2 525.4C513.1 543.3 508 561.5 506.7 581.1C506.7 581.8 506.6 582.5 506.6 583.2C505.4 605.9 508.8 631.2 522.6 650C532.3 663.2 548.4 670.1 565 673C573.6 674.5 582.2 674.9 590.3 674.7C599.4 674.5 608.4 673.5 617.3 672.1C633.2 669.8 648.9 666.5 664.6 664.8C683.1 662.8 701.5 663.3 719.4 666.2C752.4 671.6 784.5 685.6 809.9 709.5C820.8 719.8 830.3 731.9 838 745.1C841 750.2 843.6 755.5 846 760.8C872.1 819 865.5 891.3 828.7 943.2" stroke="#948DF2" stroke-width="2" stroke-miterlimit="10"/>
<path d="M76.3 -176.8C125.5 -177.1 174.2 -167.3 218.4 -147.1C261.4 -127.3 300.7 -96.9 328.7 -58.1C349.8 -28.7 363.7 3.70006 369.5 38.2001C375 70.1001 373.5 102.6 366.2 133.4C360.7 156.6 351.9 178.7 341.5 200.6C337.1 209.7 332.4 218.8 327.5 227.9C321.3 239.3 314.3 252.1 309.1 265.8C300.3 288.7 294.9 315.6 306.8 336.7C319.4 359 344.1 368.8 368.4 373.8C383 376.8 397.7 378.3 411.2 380.4C423.2 382.3 434.5 385.3 445 389.3C468.6 398.4 488.1 413.2 501.6 434.6C504.2 438.7 506.6 443.1 508.7 447.7C519.8 472.5 517.9 496.7 513 521.9C509.5 539.9 504.7 558.3 503.6 578C503.6 578.7 503.5 579.4 503.5 580.1C502.4 603 505.6 628.5 519.4 647.3C529.3 660.8 545.7 667.9 562.6 670.7C571.3 672.2 580.2 672.5 588.4 672.1C597.6 671.7 606.8 670.5 615.8 669C631.9 666.3 647.8 662.5 663.6 660.3C682.3 657.6 700.8 657.2 719 659.3C752.5 663.2 785.6 675.6 812 699.2C823.4 709.4 833.2 721.6 841.2 735C844.3 740.2 847.1 745.5 849.5 751C876.5 810.2 869.7 884.2 831.6 936.8" stroke="#9990EE" stroke-width="2" stroke-miterlimit="10"/>
<path d="M67.4 -172.8C117.1 -173.5 166.5 -164.6 211.5 -145.1C255.2 -126 295.7 -95.9997 324.4 -57.1997C346 -27.7997 360.3 4.80035 365.9 40.0004C371.2 72.3004 369.1 105.2 360.8 136C354.5 159.2 344.9 181.1 333.7 202.7C329 211.7 324 220.7 318.7 229.7C312.1 241.1 304.8 253.8 299.3 267.5C290.2 290.3 284.1 317.7 296 339.1C308.5 361.5 333.6 371.5 357.9 376.5C372.5 379.4 387.4 380.7 401 382.5C413.1 384.1 424.5 386.8 435.1 390.4C459 398.6 479 412.1 493.3 432.6C496.1 436.5 498.7 440.7 500.9 445.2C513 469.2 512.4 493.3 508.4 518.6C505.5 536.7 501.1 555.3 500.1 575.1C500.1 575.8 500 576.5 500 577.2C499.1 600.2 502 625.9 515.9 644.9C526 658.6 542.7 666 560 668.7C568.9 670.1 577.9 670.4 586.3 669.9C595.7 669.4 605 668 614.2 666.2C630.6 663.1 646.6 658.9 662.6 656C681.5 652.7 700.1 651.4 718.6 652.7C752.6 655 786.8 666 814.2 689.3C826 699.4 836.2 711.7 844.5 725.2C847.7 730.4 850.6 735.9 853.2 741.4C881.2 801.5 874.1 877.4 834.7 930.5" stroke="#9D93E9" stroke-width="2" stroke-miterlimit="10"/>
<path d="M58.5 -168.699C108.8 -169.799 158.7 -161.799 204.6 -143.099C249.1 -124.799 290.6 -95.1995 320.1 -56.1995C342.2 -26.7995 356.8 6.10054 362.3 41.9005C367.3 74.6005 364.6 107.901 355.4 138.701C348.4 161.901 337.9 183.501 325.9 204.901C320.9 213.801 315.6 222.701 310 231.701C303 243.001 295.4 255.801 289.6 269.501C280.1 292.101 273.5 320.101 285.4 341.701C297.8 364.201 323.3 374.501 347.7 379.301C362.4 382.101 377.4 383.201 391.1 384.801C403.2 386.201 414.7 388.401 425.5 391.601C449.6 398.801 470.2 411.201 485.4 430.701C488.3 434.501 491.1 438.501 493.6 442.901C506.6 466.101 507.5 490.101 504.3 515.501C502 533.701 498 552.501 497.1 572.401C497.1 573.101 497 573.801 497 574.501C496.2 597.601 498.8 623.601 512.8 642.601C523.2 656.601 540.2 664.101 557.8 666.801C566.9 668.201 576 668.301 584.6 667.701C594.2 667.001 603.6 665.501 612.9 663.501C629.5 660.001 645.7 655.301 661.8 651.901C680.8 647.901 699.7 645.801 718.3 646.201C752.7 646.901 788 656.401 816.4 679.501C828.7 689.501 839.2 701.901 847.8 715.601C851.1 720.901 854.1 726.401 856.8 732.101C885.8 793.201 878.4 870.9 837.7 924.6" stroke="#A296E5" stroke-width="2" stroke-miterlimit="10"/>
<path d="M49.7001 -164.7C100.5 -166.2 151.1 -159.1 197.7 -141.1C242.9 -123.5 285.6 -94.2998 315.8 -55.2998C338.4 -25.8998 353.3 7.30017 358.7 43.8002C363.5 76.9002 360.2 110.6 350.1 141.4C342.4 164.6 331 186 318.2 207.1C312.8 215.9 307.2 224.8 301.4 233.6C294 244.9 286.1 257.6 280.1 271.3C270.2 293.8 263 322.3 274.9 344.2C287.3 366.8 313.1 377.4 337.5 382C352.3 384.8 367.3 385.6 381.2 386.9C393.4 388 405 389.9 415.8 392.7C440.2 399 461.2 410.1 477.3 428.7C480.4 432.3 483.4 436.2 486 440.4C500 462.7 502.3 486.7 499.9 512.2C498.2 530.5 494.6 549.5 493.8 569.5C493.8 570.2 493.7 570.9 493.7 571.6C493 594.8 495.4 621.1 509.5 640.2C520.1 654.5 537.4 662.2 555.4 664.8C564.6 666.1 574 666.2 582.7 665.5C592.4 664.7 602 662.9 611.5 660.7C628.3 656.8 644.7 651.6 661 647.6C680.2 642.9 699.2 639.9 718.1 639.5C753 638.7 789.3 646.6 818.8 669.5C831.5 679.4 842.4 691.9 851.3 705.8C854.7 711.2 857.8 716.8 860.6 722.5C890.6 784.6 882.9 864 840.9 918.4" stroke="#A799E1" stroke-width="2" stroke-miterlimit="10"/>
<path d="M40.8 -160.6C92.2001 -162.5 143.4 -156.4 190.8 -139.1C236.8 -122.2 280.6 -93.4003 311.5 -54.4003C334.7 -25.1003 349.9 8.49967 355 45.5997C359.6 79.0997 355.7 113.2 344.6 144C336.1 167.2 323.9 188.3 310.3 209.2C304.6 217.9 298.7 226.7 292.6 235.5C284.8 246.8 276.6 259.4 270.3 273.2C260 295.6 252.3 324.6 264.1 346.8C276.4 369.5 302.5 380.4 327.1 384.8C342 387.5 357.1 388.1 371.1 389.1C383.3 389.9 395 391.4 406 393.8C430.6 399.1 452.2 409 469.1 426.7C472.4 430.1 475.6 433.8 478.4 437.9C493.3 459.4 497 483.4 495.5 509C494.4 527.4 491.2 546.5 490.5 566.6C490.5 567.3 490.5 568 490.4 568.8C489.9 592.1 491.9 618.6 506.2 637.9C517 652.5 534.7 660.3 552.9 662.9C562.3 664.2 571.8 664.2 580.7 663.3C590.6 662.3 600.4 660.4 609.9 658C627 653.7 643.5 648.1 659.9 643.5C679.3 638.1 698.4 634.3 717.6 633C753 630.6 790.3 637 820.9 659.7C834 669.5 845.3 682.1 854.5 696.2C858 701.6 861.2 707.3 864.1 713.1C895.1 776.1 887.1 857.4 843.8 912.3" stroke="#AC9CDC" stroke-width="2" stroke-miterlimit="10"/>
<path d="M31.9 -156.5C83.8 -158.8 135.6 -153.6 183.9 -137C230.6 -120.9 275.5 -92.3999 307.2 -53.3999C330.9 -24.0999 346.5 9.80009 351.4 47.5001C355.8 81.4001 351.2 115.9 339.2 146.6C330 169.8 316.9 190.7 302.6 211.3C296.6 219.9 290.4 228.6 284 237.3C275.8 248.6 267.3 261.1 260.7 274.9C250.1 297.2 241.7 326.8 253.6 349.2C265.8 372.1 292.3 383.2 316.9 387.5C331.9 390.1 347.1 390.6 361.1 391.2C373.4 391.8 385.2 392.9 396.3 394.8C421.2 399.1 443.3 407.9 461.1 424.7C464.5 428 467.9 431.5 470.9 435.4C486.7 456.1 491.9 480 491.2 505.7C490.7 524.2 487.8 543.5 487.3 563.7C487.3 564.4 487.3 565.1 487.3 565.9C486.9 589.3 488.7 616.1 503 635.4C514 650.2 532 658.3 550.6 660.8C560.2 662.1 569.8 661.9 579 660.9C589.1 659.8 599 657.7 608.7 655.1C626 650.4 642.7 644.3 659.2 639.1C678.7 633 698 628.3 717.5 626.2C753.4 622.3 791.8 627.1 823.3 649.5C836.9 659.2 848.5 671.9 858 686.2C861.6 691.7 864.9 697.5 867.9 703.4C899.9 767.4 891.5 850.5 847 906" stroke="#B09ED8" stroke-width="2" stroke-miterlimit="10"/>
<path d="M23 -152.5C75.5 -155.2 127.9 -150.9 177 -135.1C224.5 -119.7 270.5 -91.6005 302.9 -52.5005C327.1 -23.2005 343.1 10.8995 347.8 49.2995C352 83.5995 346.8 118.5 333.8 149.2C323.9 172.4 309.8 193 294.8 213.4C288.5 221.9 282 230.5 275.3 239.2C266.7 250.5 257.8 262.9 251 276.7C240 298.9 231.1 329 242.9 351.7C255 374.7 281.9 386 306.5 390.2C321.6 392.7 336.8 392.999 351 393.299C363.4 393.599 375.2 394.4 386.5 395.9C411.6 399.3 434.3 406.8 452.9 422.7C456.5 425.8 460.1 429.1 463.3 433C480 452.8 486.7 476.7 486.8 502.5C486.9 521.1 484.4 540.6 484 560.9C484 561.6 484 562.399 484 563.099C483.7 586.599 485.2 613.599 499.7 633.099C511 648.199 529.2 656.5 548.2 658.9C558 660.1 567.8 659.899 577.1 658.799C587.3 657.499 597.4 655.2 607.2 652.4C624.7 647.3 641.5 640.7 658.3 635C678 628.2 697.4 622.699 717.1 619.799C753.5 614.299 792.9 617.599 825.5 639.799C839.5 649.399 851.6 662.2 861.3 676.7C865 682.3 868.4 688.099 871.5 694.099C904.5 759.099 895.8 843.9 850 900" stroke="#B5A1D4" stroke-width="2" stroke-miterlimit="10"/>
<path d="M14.1001 -148.4C67.1001 -151.5 120.1 -148.1 170.1 -133C218.3 -118.3 265.5 -90.7004 298.7 -51.5004C323.4 -22.2004 339.7 12.1996 344.3 51.1996C348.3 85.8996 342.5 121.2 328.5 151.9C317.8 175.1 302.9 195.5 287.1 215.6C280.4 224 273.6 232.5 266.7 241.2C257.7 252.4 248.5 264.9 241.4 278.7C230 300.8 220.5 331.4 232.4 354.4C244.5 377.5 271.7 389.1 296.4 393.1C311.6 395.5 326.9 395.4 341.2 395.6C353.6 395.8 365.6 396 376.9 397.1C402.3 399.6 425.5 405.8 444.9 420.8C448.7 423.7 452.4 426.9 455.9 430.6C473.5 449.6 481.6 473.4 482.6 499.3C483.3 518 481.2 537.7 480.9 558.1C480.9 558.8 480.9 559.6 480.9 560.3C480.8 583.9 482 611.2 496.5 630.7C508 646.1 526.6 654.5 545.9 656.8C555.8 658 565.8 657.7 575.3 656.4C585.7 655 595.9 652.5 605.9 649.5C623.6 644.1 640.6 637 657.5 630.6C677.4 623.1 697 616.8 716.9 613C753.7 606 794.2 607.8 827.9 629.7C842.4 639.2 854.8 652.1 864.8 666.8C868.6 672.5 872.1 678.4 875.3 684.4C909.3 750.3 900.3 837 853.1 893.7" stroke="#BAA4CF" stroke-width="2" stroke-miterlimit="10"/>
<path d="M5.20007 -144.399C58.8001 -147.799 112.4 -145.399 163.2 -131.099C212.1 -117.099 260.5 -89.8989 294.4 -50.6989C319.6 -21.3989 336.3 13.3011 340.6 53.0011C344.4 88.1011 338 123.801 323 154.501C311.6 177.701 295.8 197.801 279.2 217.701C272.2 226.001 265.1 234.501 257.9 243.001C248.5 254.201 239 266.601 231.6 280.401C219.8 302.401 209.7 333.501 221.6 356.701C233.6 379.901 261.2 391.801 285.9 395.601C301.2 397.901 316.5 397.801 331 397.601C343.5 397.401 355.5 397.401 367 398.101C392.6 399.601 416.4 404.701 436.7 418.701C440.7 421.401 444.6 424.501 448.2 428.001C466.7 446.201 476.3 469.901 478.1 495.901C479.4 514.701 477.7 534.601 477.5 555.101C477.5 555.801 477.5 556.601 477.5 557.301C477.5 581.101 478.5 608.501 493.1 628.201C504.8 643.901 523.7 652.501 543.3 654.701C553.4 655.901 563.5 655.501 573.2 654.101C583.8 652.601 594.1 649.901 604.2 646.601C622.2 640.801 639.3 633.201 656.3 626.301C676.3 618.101 696.1 610.901 716.3 606.301C753.6 597.701 795.1 598.001 829.8 619.701C844.7 629.101 857.5 642.101 867.8 656.901C871.8 662.601 875.4 668.601 878.6 674.801C913.6 741.701 904.3 830.201 855.8 887.501" stroke="#BEA7CB" stroke-width="2" stroke-miterlimit="10"/>
<path d="M-3.59998 -140.3C50.5 -144.1 104.8 -142.6 156.4 -129C206.1 -115.8 255.5 -88.9001 290.2 -49.7001C315.9 -20.5001 333 14.5999 337.1 54.8999C340.7 90.3999 333.6 126.5 317.7 157.2C305.6 180.4 288.9 200.3 271.6 219.9C264.3 228.1 256.8 236.5 249.4 245C239.6 256.2 229.8 268.5 222.1 282.4C210 304.3 199.3 335.9 211.2 359.4C223.1 382.7 251.1 394.9 275.8 398.6C291.2 400.8 306.6 400.5 321.2 400C333.7 399.5 345.9 399.2 357.5 399.4C383.4 400 407.7 403.8 428.8 416.9C432.9 419.5 437 422.4 440.9 425.8C460.3 443.2 471.4 466.8 474.1 492.9C476.1 511.8 474.6 531.9 474.7 552.5C474.7 553.2 474.7 554 474.7 554.7C474.8 578.6 475.5 606.3 490.3 626C502.2 642 521.5 650.7 541.4 652.9C551.7 654 562 653.5 571.8 652C582.5 650.3 593.1 647.4 603.3 644C621.5 637.8 638.8 629.7 656 622.2C676.2 613.3 696.1 605.3 716.5 599.8C754.3 589.6 796.9 588.4 832.6 609.9C848 619.1 861.1 632.3 871.7 647.3C875.8 653.1 879.5 659.2 882.8 665.4C918.8 733.3 909.2 823.6 859.4 881.4" stroke="#C3AAC6" stroke-width="2" stroke-miterlimit="10"/>
<path d="M-12.5 -136.2C42.2 -140.4 97 -139.8 149.5 -127C199.9 -114.5 250.5 -88.0001 285.9 -48.8001C312.1 -19.6001 329.6 15.6999 333.5 56.6999C336.9 92.5999 329.2 129.1 312.4 159.7C299.5 182.9 282 202.5 263.9 221.9C256.3 230 248.5 238.3 240.8 246.7C230.6 257.9 220.5 270.1 212.5 284C200 305.7 188.7 337.9 200.6 361.7C212.4 385.1 240.8 397.5 265.6 401.1C281.1 403.3 296.6 402.8 311.3 401.9C323.9 401.2 336.1 400.4 347.8 400.3C374 399.9 398.7 402.5 420.7 414.7C425 417.1 429.3 419.8 433.3 423.1C453.6 439.7 466.1 463.2 469.7 489.4C472.3 508.5 471.2 528.7 471.4 549.3C471.4 550.1 471.4 550.8 471.4 551.6C471.7 575.6 472.1 603.5 486.9 623.4C499.1 639.6 518.6 648.6 538.9 650.7C549.3 651.8 559.8 651.2 569.8 649.5C580.7 647.7 591.4 644.6 601.7 640.9C620.1 634.3 637.6 625.8 654.9 617.7C675.3 608.2 695.3 599.3 716 592.9C754.3 581.2 797.9 578.4 834.6 599.7C850.4 608.8 863.9 622.1 874.8 637.3C879 643.2 882.8 649.3 886.2 655.6C923.2 724.4 913.3 816.5 862.2 875" stroke="#C8ADC2" stroke-width="2" stroke-miterlimit="10"/>
<path d="M-21.3999 -132.199C33.9001 -136.799 89.3001 -137.099 142.6 -124.999C193.8 -113.199 245.5 -87.0992 281.6 -47.7992C308.3 -18.5992 326.2 17.0008 329.9 58.6008C333.2 94.9008 324.8 131.801 307 162.401C293.4 185.701 275 204.901 256.1 224.101C248.1 232.101 240.1 240.301 232.1 248.701C221.5 259.801 211.1 272.001 202.9 285.901C190.1 307.501 178.2 340.301 190.1 364.301C201.9 387.901 230.6 400.501 255.4 403.901C271 406.001 286.5 405.301 301.4 404.101C314.1 403.101 326.4 402.001 338.2 401.401C364.6 400.101 389.9 401.501 412.8 412.701C417.3 414.901 421.8 417.501 426 420.601C447.2 436.401 461.2 459.801 465.6 486.101C468.8 505.301 468.1 525.601 468.4 546.401C468.4 547.201 468.4 547.901 468.4 548.701C468.8 572.801 468.9 601.001 483.9 621.001C496.3 637.501 516.2 646.601 536.8 648.701C547.4 649.801 558 649.101 568.2 647.301C579.3 645.401 590.1 642.101 600.6 638.201C619.3 631.201 636.9 622.201 654.3 613.501C674.8 603.301 695 593.501 716 586.401C754.8 573.101 799.4 568.801 837.2 589.801C853.4 598.801 867.3 612.201 878.5 627.601C882.8 633.501 886.7 639.801 890.2 646.201C928.2 716.001 918 809.901 865.6 868.901" stroke="#CCAFBE" stroke-width="2" stroke-miterlimit="10"/>
<path d="M-30.2999 -128.099C25.5001 -133.099 81.5001 -134.399 135.6 -122.999C187.5 -111.999 240.3 -86.2988 277.2 -46.8988C304.4 -17.6988 322.7 18.2012 326.1 60.5012C329.2 97.2012 320.1 134.501 301.4 165.101C287.1 188.401 267.7 207.401 248.1 226.301C239.8 234.301 231.4 242.301 223.2 250.701C212.2 261.801 201.5 274.001 193 287.901C179.8 309.401 167.3 342.701 179.2 367.001C190.9 390.701 220 403.601 244.9 406.801C260.5 408.801 276.2 407.901 291.2 406.401C303.9 405.101 316.3 403.701 328.3 402.701C355 400.501 380.8 400.601 404.5 410.901C409.2 412.901 413.8 415.401 418.2 418.301C440.3 433.301 455.8 456.601 461 483.001C464.8 502.301 464.5 522.801 464.9 543.701C464.9 544.501 464.9 545.201 465 546.001C465.5 570.201 465.4 598.701 480.4 618.701C493 635.501 513.2 644.801 534.1 646.801C544.9 647.801 555.6 647.101 566 645.101C577.2 643.001 588.2 639.501 598.8 635.401C617.7 628.001 635.5 618.501 653.1 609.301C673.8 598.401 694.1 587.801 715.4 579.801C754.6 565.001 800.4 559.201 839.2 579.901C855.9 588.801 870.1 602.301 881.6 617.901C886 623.901 890 630.201 893.6 636.701C932.6 707.401 922.1 803.201 868.4 862.801" stroke="#D1B2B9" stroke-width="2" stroke-miterlimit="10"/>
<path d="M-39.2 -124.1C17.2001 -129.5 73.8 -131.7 128.7 -121C181.3 -110.7 235.3 -85.3996 272.9 -45.9995C300.6 -16.8995 319.3 19.3004 322.5 62.3004C325.4 99.5004 315.7 137.1 296 167.7C280.9 191 260.7 209.7 240.3 228.4C231.7 236.3 223 244.2 214.5 252.5C203.1 263.6 192.1 275.7 183.3 289.6C169.7 311 156.7 344.8 168.6 369.3C180.2 393.1 209.7 406.3 234.6 409.4C250.3 411.3 266.1 410.2 281.2 408.4C294 406.9 306.5 405.1 318.6 403.6C345.5 400.4 371.9 399.3 396.4 408.7C401.2 410.6 406.1 412.8 410.7 415.7C433.7 429.9 450.7 453.1 456.7 479.6C461.1 499 461.2 519.7 461.7 540.7C461.7 541.5 461.7 542.2 461.8 543C462.5 567.3 462 596 477.2 616.2C490.1 633.3 510.5 642.8 531.8 644.7C542.7 645.7 553.7 644.8 564.2 642.7C575.6 640.5 586.7 636.8 597.4 632.5C616.5 624.7 634.5 614.8 652.2 604.9C673.1 593.3 693.6 581.8 715 573C754.7 556.6 801.5 549.3 841.3 569.8C858.4 578.6 873 592.2 884.8 608C889.3 614.1 893.4 620.5 897.1 627.1C937.1 698.8 926.2 796.3 871.3 856.6" stroke="#D6B5B5" stroke-width="2" stroke-miterlimit="10"/>
<path d="M-48.1 -119.999C8.80003 -125.799 66.1 -128.899 121.8 -118.999C175.2 -109.399 230.3 -84.4987 268.7 -45.0987C297 -15.9987 315.9 20.5014 319 64.1014C321.7 101.701 311.4 139.701 290.7 170.301C274.9 193.601 253.8 212.101 232.7 230.501C223.8 238.301 214.8 246.101 206 254.401C194.2 265.501 182.9 277.501 173.8 291.501C159.9 312.801 146.2 347.101 158.1 371.901C169.6 395.801 199.4 409.301 224.4 412.201C240.2 414.001 256 412.801 271.3 410.701C284.1 408.901 296.7 406.701 308.9 404.801C336.1 400.701 363 398.301 388.3 406.801C393.3 408.501 398.3 410.601 403.1 413.301C427 426.701 445.4 449.901 452.3 476.501C457.3 496.001 457.7 516.901 458.4 538.001C458.4 538.801 458.5 539.501 458.5 540.301C459.3 564.701 458.6 593.701 473.9 613.901C487 631.201 507.8 640.901 529.4 642.801C540.5 643.801 551.6 642.801 562.3 640.601C573.9 638.201 585.2 634.401 596 629.801C615.4 621.601 633.5 611.201 651.4 600.701C672.4 588.401 693.1 576.101 714.8 566.401C755 548.401 802.8 539.601 843.7 559.901C861.3 568.601 876.2 582.301 888.3 598.301C892.9 604.401 897.1 610.901 900.9 617.601C941.9 690.301 930.7 789.601 874.5 850.401" stroke="#DBB8B1" stroke-width="2" stroke-miterlimit="10"/>
<path d="M-57 -115.9C0.5 -122.1 58.3 -126.1 114.9 -116.9C169 -108 225.3 -83.5005 264.4 -44.1005C293.2 -15.0005 312.5 21.7995 315.4 65.9995C317.9 103.999 306.9 142.399 285.3 172.899C268.8 196.199 246.8 214.399 224.9 232.599C215.6 240.299 206.3 248.099 197.3 256.199C185.1 267.199 173.5 279.199 164.1 293.199C149.8 314.399 135.5 349.199 147.4 374.299C158.9 398.299 189 411.999 214.1 414.799C230 416.499 245.9 415.1 261.3 412.7C274.2 410.7 286.9 408.099 299.2 405.799C326.6 400.699 354.1 397.1 380.3 404.7C385.5 406.2 390.7 408.2 395.7 410.7C420.5 423.3 440.5 446.399 448.1 473.099C453.8 492.699 454.5 513.8 455.3 535C455.3 535.8 455.4 536.599 455.4 537.299C456.3 561.899 455.4 591 470.7 611.4C484 629 505.1 638.9 527.1 640.7C538.4 641.6 549.6 640.6 560.6 638.2C572.3 635.7 583.8 631.7 594.7 626.9C614.3 618.3 632.6 607.4 650.6 596.4C671.8 583.4 692.6 570.3 714.6 559.7C755.3 540.2 804.1 529.8 846 549.9C864 558.5 879.3 572.3 891.7 588.5C896.4 594.7 900.7 601.3 904.6 608C946.6 681.6 935.1 782.799 877.6 844.199" stroke="#DFBBAC" stroke-width="2" stroke-miterlimit="10"/>
<path d="M-65.7999 -111.9C-7.79993 -118.5 50.7001 -123.4 108.1 -115C163 -106.9 220.3 -82.8001 260.2 -43.2001C289.5 -14.1001 309.2 22.9999 311.9 67.7999C314.2 106.2 302.6 145 280.1 175.5C262.9 198.8 240 216.8 217.3 234.7C207.7 242.3 198.1 250 188.8 258.1C176.2 269.1 164.3 281.1 154.6 295C140 316.1 125.1 351.4 137 376.8C148.4 400.9 178.9 414.9 204 417.5C220 419.2 235.9 417.5 251.5 414.8C264.5 412.5 277.2 409.6 289.7 406.8C317.4 400.8 345.4 395.9 372.4 402.6C377.8 403.9 383.1 405.8 388.3 408.2C414 420 435.4 443 443.9 469.8C450.2 489.5 451.3 510.8 452.2 532C452.2 532.8 452.3 533.6 452.3 534.3C453.4 559 452.1 588.4 467.6 608.9C481.1 626.8 502.6 636.8 524.8 638.5C536.3 639.4 547.7 638.3 558.8 635.8C570.7 633.1 582.3 628.9 593.4 623.9C613.2 615 631.7 603.6 649.8 591.9C671.2 578.2 692.1 564.2 714.4 552.8C755.5 531.7 805.5 519.8 848.4 539.6C866.8 548.1 882.5 562 895.2 578.3C900.1 584.6 904.5 591.2 908.4 598.1C951.4 672.7 939.6 775.7 880.8 837.6" stroke="#E4BEA8" stroke-width="2" stroke-miterlimit="10"/>
<path d="M-74.7 -107.8C-16.1 -114.7 42.9 -120.6 101.2 -112.9C156.8 -105.5 215.3 -81.7998 255.9 -42.1998C285.7 -13.0998 305.8 24.2002 308.2 69.8002C310.3 108.6 298.1 147.8 274.6 178.3C256.6 201.6 232.9 219.3 209.4 237C199.5 244.5 189.5 252.1 180 260.1C167 271 154.8 283 144.8 297C129.9 318.1 114.3 353.9 126.2 379.5C137.5 403.7 168.4 418 193.5 420.5C209.6 422.1 225.6 420.3 241.3 417.2C254.3 414.7 267.2 411.3 279.8 408.2C307.7 401.2 336.3 395.1 364.1 400.9C369.6 402 375.2 403.7 380.6 406C407.2 417.1 430.1 439.9 439.4 466.8C446.3 486.6 447.8 508.1 448.8 529.4C448.8 530.2 448.9 531 448.9 531.8C450.1 556.6 448.6 586.2 464.2 606.8C478 625 499.7 635.2 522.3 636.8C533.9 637.6 545.5 636.4 556.8 633.8C568.9 631 580.6 626.6 591.8 621.4C611.8 612.1 630.4 600.2 648.8 588C670.3 573.6 691.4 558.8 713.9 546.6C755.5 524 806.5 510.6 850.5 530.1C869.4 538.5 885.4 552.5 898.4 569C903.4 575.3 907.9 582.1 911.9 589C955.9 664.6 943.8 769.3 883.7 831.9" stroke="#E9C0A4" stroke-width="2" stroke-miterlimit="10"/>
<path d="M-83.6 -103.8C-24.5 -111.1 35.2 -117.9 94.3 -111C150.7 -104.3 210.3 -81.0004 251.6 -41.4004C281.9 -12.4004 302.3 25.2996 304.6 71.4996C306.5 110.7 293.6 150.3 269.2 180.8C250.5 204.1 225.8 221.6 201.6 239C191.4 246.4 181.1 253.9 171.3 261.9C157.9 272.8 145.4 284.7 135.2 298.7C119.9 319.6 103.8 356 115.7 381.9C126.9 406.3 158.2 420.8 183.4 423.1C199.6 424.6 215.7 422.6 231.5 419.2C244.6 416.4 257.5 412.7 270.2 409.1C298.4 401.2 327.5 393.8 356.2 398.7C361.9 399.7 367.6 401.2 373.2 403.3C400.7 413.7 425.1 436.3 435.2 463.3C442.7 483.2 444.5 504.8 445.8 526.3C445.8 527.1 445.9 527.9 445.9 528.7C447.3 553.6 445.4 583.5 461.1 604.2C475.1 622.7 497.1 633 520.1 634.6C531.9 635.4 543.6 634.1 555.1 631.3C567.3 628.4 579.2 623.8 590.6 618.3C610.9 608.6 629.6 596.2 648.1 583.4C669.8 568.3 691.1 552.7 713.8 539.6C755.9 515.4 807.9 500.5 852.9 519.8C872.2 528.1 888.6 542.2 901.9 558.9C907 565.3 911.6 572.1 915.7 579.1C960.7 655.6 948.3 762.2 886.9 825.4" stroke="#EDC39F" stroke-width="2" stroke-miterlimit="10"/>
<path d="M-92.5 -99.7002C-32.8 -107.4 27.5 -115.1 87.4 -108.9C186.3 -98.6002 296.1 -37.3002 301 73.3998C302.7 113 289.2 153 263.8 183.4C244.4 206.7 218.8 223.9 193.9 241.1C168.9 258.3 143.8 276.3 125.5 300.5C109.8 321.3 93.1 358.2 105 384.3C116.2 408.8 147.8 423.6 173 425.7C202.7 428.3 231.9 419 260.4 410.1C288.9 401.2 318.4 392.6 348 396.6C382.8 401.3 417.6 427.3 430.8 460C439.2 480.7 441.3 503.4 442.6 525.8C444.1 550.8 442 581 457.8 601.7C472 620.4 494.4 631 517.7 632.5C542.4 634.1 566.9 626.4 589.1 615.5C633.7 593.5 670.8 558.7 713.4 533C756 507.3 809 490.8 855.1 509.9C882.4 521.2 904.1 544 919.3 569.7C965.3 647.2 952.6 755.6 889.9 819.3" stroke="#F2C69B" stroke-width="2" stroke-miterlimit="10"/>
</g>
</g>
</g>
<defs>
<clipPath id="clip0_714_3676">
<rect width="1200" height="800" fill="white"/>
</clipPath>
</defs>
</svg>
