<svg width="617" height="603" viewBox="0 0 617 603" fill="none" xmlns="http://www.w3.org/2000/svg">
<path d="M9.17712 154.687C-33.7781 -0.969421 125.344 -16.8133 240.177 30.1867C307.177 54.3582 351.177 -20.8133 434.177 9.18666C517.177 39.1867 417.678 133.687 544.678 182.187C671.678 230.687 609.677 447.687 498.677 450.187C387.677 452.687 418.177 489.187 307.177 572.687C196.177 656.187 9.17738 540.187 55.6773 417.687C102.177 295.187 55.6768 323.187 9.17712 154.687Z" stroke="white" stroke-width="3"/>
<path d="M248.076 275.825C243.119 261 266.334 237.083 285 247.29C302.094 256.637 319.5 250.333 331 254.5C361.275 265.47 350.139 271.277 363.673 284.305C380.142 300.16 388 341.675 350.139 341.675C319 341.675 328.317 356.799 305 363.5C281.683 370.201 255.24 358.794 255.24 328.763C255.24 317.485 256.33 300.517 248.076 275.825Z" stroke="white" stroke-width="3"/>
<path d="M30.8919 164.944C-8.60886 22.0905 138.158 5.5127 244.249 49.1679C306.712 71.9917 348.294 3.08086 424.794 30.7324C503.001 59.0024 411.534 145.439 528.219 190.715C645.171 236.247 589.522 437.294 485.171 439.566C381.431 441.839 410.005 476.396 306.976 552.914C203.947 629.432 31.5434 522.941 73.8161 408.847C116.089 296.458 73.9147 320.37 30.8919 164.944Z" stroke="white" stroke-width="3"/>
<path d="M52.6072 175.199C16.5609 45.1489 150.973 27.8372 248.321 68.1476C306.247 89.6236 345.412 26.9735 415.412 52.2766C488.826 78.8166 405.392 157.191 511.762 199.241C618.665 241.806 569.366 426.899 471.664 428.945C375.185 430.99 401.833 463.604 306.775 533.14C211.718 602.677 53.91 505.694 91.9554 400.006C130.001 297.728 92.1533 317.552 52.6072 175.199Z" stroke="white" stroke-width="3"/>
<path d="M74.3227 185.457C41.7309 68.2098 163.787 50.1642 252.393 87.1297C305.782 107.258 342.53 50.8687 406.03 73.8234C474.65 98.6334 399.249 168.944 495.304 207.77C592.159 247.367 549.211 416.507 458.158 418.325C368.939 420.144 393.661 450.814 306.575 513.369C219.488 575.924 76.2768 488.449 110.095 391.168C143.913 299.001 110.392 314.737 74.3227 185.457Z" stroke="white" stroke-width="3"/>
<path d="M96.0379 195.714C66.9005 91.2696 176.602 72.49 256.465 106.111C305.317 124.891 339.647 74.7627 396.647 95.3689C460.474 118.449 393.107 180.697 478.846 216.298C565.653 252.927 529.056 406.114 444.652 407.705C362.692 409.296 385.49 438.023 306.374 493.596C227.259 549.169 98.6432 471.203 128.234 382.328C157.825 300.272 128.63 311.921 96.0379 195.714Z" stroke="white" stroke-width="3"/>
<path d="M117.753 206.493C92.0704 114.851 189.416 95.3375 260.537 125.613C304.853 143.046 336.765 99.1784 387.265 117.436C446.299 138.786 386.964 192.971 462.389 225.348C539.147 259.009 508.901 396.243 431.146 397.606C356.446 398.97 377.318 425.754 306.174 474.345C235.03 522.937 121.01 454.479 146.373 374.01C171.737 302.065 146.869 309.626 117.753 206.493Z" stroke="white" stroke-width="3"/>
<path d="M139.47 217.886C117.241 139.047 202.232 118.799 264.61 145.731C304.389 161.816 333.883 124.209 377.883 140.118C432.124 159.738 380.823 205.86 445.932 235.012C512.642 265.705 488.747 386.986 417.641 388.122C350.201 389.258 369.147 414.099 305.974 455.709C242.801 497.318 143.377 438.369 164.514 366.306C185.65 304.473 165.108 307.945 139.47 217.886Z" stroke="white" stroke-width="3"/>
<path d="M161.186 229.312C142.412 163.275 215.048 142.294 268.684 165.88C303.925 180.618 331.002 149.271 368.502 162.832C417.95 180.722 374.681 218.781 429.476 244.708C486.138 272.434 468.593 377.761 404.136 378.67C343.957 379.579 360.977 402.476 305.775 437.105C250.573 471.733 165.745 422.292 182.655 358.635C199.564 306.913 183.348 306.298 161.186 229.312Z" stroke="white" stroke-width="3"/>
<path d="M182.904 240.788C167.584 187.555 227.864 165.839 272.758 186.081C303.462 199.471 328.121 174.385 359.121 185.597C403.776 201.757 368.541 231.753 413.02 254.456C459.633 279.213 448.44 368.588 390.632 369.27C337.712 369.952 352.807 390.905 305.576 418.552C258.345 446.198 188.114 406.266 200.796 351.016C213.478 309.404 201.589 304.701 182.904 240.788Z" stroke="white" stroke-width="3"/>
<path d="M204.622 252.338C192.757 211.907 240.682 189.458 276.833 206.354C303.001 218.396 325.242 199.571 349.742 208.435C389.604 222.865 362.402 244.798 396.566 264.276C433.131 286.066 428.288 359.487 377.129 359.942C331.47 360.396 344.638 379.407 305.379 400.071C266.119 420.736 210.484 390.312 218.938 343.468C227.393 311.968 219.831 303.177 204.622 252.338Z" stroke="white" stroke-width="3"/>
<path d="M226.345 263.995C217.934 236.367 253.504 213.184 280.913 226.736C302.543 237.43 322.367 224.866 340.367 231.381C375.435 244.081 356.266 257.951 380.115 274.204C406.632 293.026 408.14 350.494 363.63 350.722C325.231 350.949 336.474 368.016 305.185 381.699C273.897 395.382 232.858 374.467 237.085 336.029C241.312 314.64 238.076 301.761 226.345 263.995Z" stroke="white" stroke-width="3"/>
</svg>
