<svg width="1200" height="800" viewBox="0 0 1200 800" fill="none" xmlns="http://www.w3.org/2000/svg">
<g clip-path="url(#clip0_714_3963)">
<rect width="1200" height="800" fill="white"/>
<mask id="mask0_714_3963" style="mask-type:luminance" maskUnits="userSpaceOnUse" x="0" y="0" width="1200" height="800">
<path d="M1200 0H0V800H1200V0Z" fill="white"/>
</mask>
<g mask="url(#mask0_714_3963)">
<path d="M1200 0H0V800H1200V0Z" fill="#FFF4E6"/>
</g>
<mask id="mask1_714_3963" style="mask-type:luminance" maskUnits="userSpaceOnUse" x="0" y="0" width="1200" height="800">
<path d="M1200 0H0V800H1200V0Z" fill="white"/>
</mask>
<g mask="url(#mask1_714_3963)">
<path d="M91 333C92.1046 333 93 332.105 93 331C93 329.895 92.1046 329 91 329C89.8954 329 89 329.895 89 331C89 332.105 89.8954 333 91 333Z" fill="#D9CAB8"/>
<path d="M91 310C92.1046 310 93 309.105 93 308C93 306.895 92.1046 306 91 306C89.8954 306 89 306.895 89 308C89 309.105 89.8954 310 91 310Z" fill="#D9CAB8"/>
<path d="M91 287C92.1046 287 93 286.105 93 285C93 283.895 92.1046 283 91 283C89.8954 283 89 283.895 89 285C89 286.105 89.8954 287 91 287Z" fill="#D9CAB8"/>
<path d="M91 264C92.1046 264 93 263.105 93 262C93 260.895 92.1046 260 91 260C89.8954 260 89 260.895 89 262C89 263.105 89.8954 264 91 264Z" fill="#D9CAB8"/>
<path d="M91 241C92.1046 241 93 240.105 93 239C93 237.895 92.1046 237 91 237C89.8954 237 89 237.895 89 239C89 240.105 89.8954 241 91 241Z" fill="#D9CAB8"/>
<path d="M116 333C117.105 333 118 332.105 118 331C118 329.895 117.105 329 116 329C114.895 329 114 329.895 114 331C114 332.105 114.895 333 116 333Z" fill="#D9CAB8"/>
<path d="M116 310C117.105 310 118 309.105 118 308C118 306.895 117.105 306 116 306C114.895 306 114 306.895 114 308C114 309.105 114.895 310 116 310Z" fill="#D9CAB8"/>
<path d="M116 287C117.105 287 118 286.105 118 285C118 283.895 117.105 283 116 283C114.895 283 114 283.895 114 285C114 286.105 114.895 287 116 287Z" fill="#D9CAB8"/>
<path d="M116 264C117.105 264 118 263.105 118 262C118 260.895 117.105 260 116 260C114.895 260 114 260.895 114 262C114 263.105 114.895 264 116 264Z" fill="#D9CAB8"/>
<path d="M116 241C117.105 241 118 240.105 118 239C118 237.895 117.105 237 116 237C114.895 237 114 237.895 114 239C114 240.105 114.895 241 116 241Z" fill="#D9CAB8"/>
<path d="M141 333C142.105 333 143 332.105 143 331C143 329.895 142.105 329 141 329C139.895 329 139 329.895 139 331C139 332.105 139.895 333 141 333Z" fill="#D9CAB8"/>
<path d="M141 310C142.105 310 143 309.105 143 308C143 306.895 142.105 306 141 306C139.895 306 139 306.895 139 308C139 309.105 139.895 310 141 310Z" fill="#D9CAB8"/>
<path d="M141 287C142.105 287 143 286.105 143 285C143 283.895 142.105 283 141 283C139.895 283 139 283.895 139 285C139 286.105 139.895 287 141 287Z" fill="#D9CAB8"/>
<path d="M141 264C142.105 264 143 263.105 143 262C143 260.895 142.105 260 141 260C139.895 260 139 260.895 139 262C139 263.105 139.895 264 141 264Z" fill="#D9CAB8"/>
<path d="M141 241C142.105 241 143 240.105 143 239C143 237.895 142.105 237 141 237C139.895 237 139 237.895 139 239C139 240.105 139.895 241 141 241Z" fill="#D9CAB8"/>
<path d="M166 333C167.105 333 168 332.105 168 331C168 329.895 167.105 329 166 329C164.895 329 164 329.895 164 331C164 332.105 164.895 333 166 333Z" fill="#D9CAB8"/>
<path d="M166 310C167.105 310 168 309.105 168 308C168 306.895 167.105 306 166 306C164.895 306 164 306.895 164 308C164 309.105 164.895 310 166 310Z" fill="#D9CAB8"/>
<path d="M166 287C167.105 287 168 286.105 168 285C168 283.895 167.105 283 166 283C164.895 283 164 283.895 164 285C164 286.105 164.895 287 166 287Z" fill="#D9CAB8"/>
<path d="M166 264C167.105 264 168 263.105 168 262C168 260.895 167.105 260 166 260C164.895 260 164 260.895 164 262C164 263.105 164.895 264 166 264Z" fill="#D9CAB8"/>
<path d="M166 241C167.105 241 168 240.105 168 239C168 237.895 167.105 237 166 237C164.895 237 164 237.895 164 239C164 240.105 164.895 241 166 241Z" fill="#D9CAB8"/>
<path d="M191 333C192.105 333 193 332.105 193 331C193 329.895 192.105 329 191 329C189.895 329 189 329.895 189 331C189 332.105 189.895 333 191 333Z" fill="#D9CAB8"/>
<path d="M191 310C192.105 310 193 309.105 193 308C193 306.895 192.105 306 191 306C189.895 306 189 306.895 189 308C189 309.105 189.895 310 191 310Z" fill="#D9CAB8"/>
<path d="M191 287C192.105 287 193 286.105 193 285C193 283.895 192.105 283 191 283C189.895 283 189 283.895 189 285C189 286.105 189.895 287 191 287Z" fill="#D9CAB8"/>
<path d="M191 264C192.105 264 193 263.105 193 262C193 260.895 192.105 260 191 260C189.895 260 189 260.895 189 262C189 263.105 189.895 264 191 264Z" fill="#D9CAB8"/>
<path d="M191 241C192.105 241 193 240.105 193 239C193 237.895 192.105 237 191 237C189.895 237 189 237.895 189 239C189 240.105 189.895 241 191 241Z" fill="#D9CAB8"/>
<path d="M216 333C217.105 333 218 332.105 218 331C218 329.895 217.105 329 216 329C214.895 329 214 329.895 214 331C214 332.105 214.895 333 216 333Z" fill="#D9CAB8"/>
<path d="M216 310C217.105 310 218 309.105 218 308C218 306.895 217.105 306 216 306C214.895 306 214 306.895 214 308C214 309.105 214.895 310 216 310Z" fill="#D9CAB8"/>
<path d="M216 287C217.105 287 218 286.105 218 285C218 283.895 217.105 283 216 283C214.895 283 214 283.895 214 285C214 286.105 214.895 287 216 287Z" fill="#D9CAB8"/>
<path d="M216 264C217.105 264 218 263.105 218 262C218 260.895 217.105 260 216 260C214.895 260 214 260.895 214 262C214 263.105 214.895 264 216 264Z" fill="#D9CAB8"/>
<path d="M216 241C217.105 241 218 240.105 218 239C218 237.895 217.105 237 216 237C214.895 237 214 237.895 214 239C214 240.105 214.895 241 216 241Z" fill="#D9CAB8"/>
<path d="M241 333C242.105 333 243 332.105 243 331C243 329.895 242.105 329 241 329C239.895 329 239 329.895 239 331C239 332.105 239.895 333 241 333Z" fill="#D9CAB8"/>
<path d="M241 310C242.105 310 243 309.105 243 308C243 306.895 242.105 306 241 306C239.895 306 239 306.895 239 308C239 309.105 239.895 310 241 310Z" fill="#D9CAB8"/>
<path d="M241 287C242.105 287 243 286.105 243 285C243 283.895 242.105 283 241 283C239.895 283 239 283.895 239 285C239 286.105 239.895 287 241 287Z" fill="#D9CAB8"/>
<path d="M241 264C242.105 264 243 263.105 243 262C243 260.895 242.105 260 241 260C239.895 260 239 260.895 239 262C239 263.105 239.895 264 241 264Z" fill="#D9CAB8"/>
<path d="M241 241C242.105 241 243 240.105 243 239C243 237.895 242.105 237 241 237C239.895 237 239 237.895 239 239C239 240.105 239.895 241 241 241Z" fill="#D9CAB8"/>
<path d="M266 333C267.105 333 268 332.105 268 331C268 329.895 267.105 329 266 329C264.895 329 264 329.895 264 331C264 332.105 264.895 333 266 333Z" fill="#D9CAB8"/>
<path d="M266 310C267.105 310 268 309.105 268 308C268 306.895 267.105 306 266 306C264.895 306 264 306.895 264 308C264 309.105 264.895 310 266 310Z" fill="#D9CAB8"/>
<path d="M266 287C267.105 287 268 286.105 268 285C268 283.895 267.105 283 266 283C264.895 283 264 283.895 264 285C264 286.105 264.895 287 266 287Z" fill="#D9CAB8"/>
<path d="M266 264C267.105 264 268 263.105 268 262C268 260.895 267.105 260 266 260C264.895 260 264 260.895 264 262C264 263.105 264.895 264 266 264Z" fill="#D9CAB8"/>
<path d="M266 241C267.105 241 268 240.105 268 239C268 237.895 267.105 237 266 237C264.895 237 264 237.895 264 239C264 240.105 264.895 241 266 241Z" fill="#D9CAB8"/>
<path d="M291 333C292.105 333 293 332.105 293 331C293 329.895 292.105 329 291 329C289.895 329 289 329.895 289 331C289 332.105 289.895 333 291 333Z" fill="#D9CAB8"/>
<path d="M291 310C292.105 310 293 309.105 293 308C293 306.895 292.105 306 291 306C289.895 306 289 306.895 289 308C289 309.105 289.895 310 291 310Z" fill="#D9CAB8"/>
<path d="M291 287C292.105 287 293 286.105 293 285C293 283.895 292.105 283 291 283C289.895 283 289 283.895 289 285C289 286.105 289.895 287 291 287Z" fill="#D9CAB8"/>
<path d="M291 264C292.105 264 293 263.105 293 262C293 260.895 292.105 260 291 260C289.895 260 289 260.895 289 262C289 263.105 289.895 264 291 264Z" fill="#D9CAB8"/>
<path d="M291 241C292.105 241 293 240.105 293 239C293 237.895 292.105 237 291 237C289.895 237 289 237.895 289 239C289 240.105 289.895 241 291 241Z" fill="#D9CAB8"/>
<path d="M316 333C317.105 333 318 332.105 318 331C318 329.895 317.105 329 316 329C314.895 329 314 329.895 314 331C314 332.105 314.895 333 316 333Z" fill="#D9CAB8"/>
<path d="M316 310C317.105 310 318 309.105 318 308C318 306.895 317.105 306 316 306C314.895 306 314 306.895 314 308C314 309.105 314.895 310 316 310Z" fill="#D9CAB8"/>
<path d="M316 287C317.105 287 318 286.105 318 285C318 283.895 317.105 283 316 283C314.895 283 314 283.895 314 285C314 286.105 314.895 287 316 287Z" fill="#D9CAB8"/>
<path d="M316 264C317.105 264 318 263.105 318 262C318 260.895 317.105 260 316 260C314.895 260 314 260.895 314 262C314 263.105 314.895 264 316 264Z" fill="#D9CAB8"/>
<path d="M316 241C317.105 241 318 240.105 318 239C318 237.895 317.105 237 316 237C314.895 237 314 237.895 314 239C314 240.105 314.895 241 316 241Z" fill="#D9CAB8"/>
<path d="M341 333C342.105 333 343 332.105 343 331C343 329.895 342.105 329 341 329C339.895 329 339 329.895 339 331C339 332.105 339.895 333 341 333Z" fill="#D9CAB8"/>
<path d="M341 310C342.105 310 343 309.105 343 308C343 306.895 342.105 306 341 306C339.895 306 339 306.895 339 308C339 309.105 339.895 310 341 310Z" fill="#D9CAB8"/>
<path d="M341 287C342.105 287 343 286.105 343 285C343 283.895 342.105 283 341 283C339.895 283 339 283.895 339 285C339 286.105 339.895 287 341 287Z" fill="#D9CAB8"/>
<path d="M341 264C342.105 264 343 263.105 343 262C343 260.895 342.105 260 341 260C339.895 260 339 260.895 339 262C339 263.105 339.895 264 341 264Z" fill="#D9CAB8"/>
<path d="M341 241C342.105 241 343 240.105 343 239C343 237.895 342.105 237 341 237C339.895 237 339 237.895 339 239C339 240.105 339.895 241 341 241Z" fill="#D9CAB8"/>
<path d="M366 333C367.105 333 368 332.105 368 331C368 329.895 367.105 329 366 329C364.895 329 364 329.895 364 331C364 332.105 364.895 333 366 333Z" fill="#D9CAB8"/>
<path d="M366 310C367.105 310 368 309.105 368 308C368 306.895 367.105 306 366 306C364.895 306 364 306.895 364 308C364 309.105 364.895 310 366 310Z" fill="#D9CAB8"/>
<path d="M366 287C367.105 287 368 286.105 368 285C368 283.895 367.105 283 366 283C364.895 283 364 283.895 364 285C364 286.105 364.895 287 366 287Z" fill="#D9CAB8"/>
<path d="M366 264C367.105 264 368 263.105 368 262C368 260.895 367.105 260 366 260C364.895 260 364 260.895 364 262C364 263.105 364.895 264 366 264Z" fill="#D9CAB8"/>
<path d="M366 241C367.105 241 368 240.105 368 239C368 237.895 367.105 237 366 237C364.895 237 364 237.895 364 239C364 240.105 364.895 241 366 241Z" fill="#D9CAB8"/>
<path d="M391 333C392.105 333 393 332.105 393 331C393 329.895 392.105 329 391 329C389.895 329 389 329.895 389 331C389 332.105 389.895 333 391 333Z" fill="#D9CAB8"/>
<path d="M391 310C392.105 310 393 309.105 393 308C393 306.895 392.105 306 391 306C389.895 306 389 306.895 389 308C389 309.105 389.895 310 391 310Z" fill="#D9CAB8"/>
<path d="M391 287C392.105 287 393 286.105 393 285C393 283.895 392.105 283 391 283C389.895 283 389 283.895 389 285C389 286.105 389.895 287 391 287Z" fill="#D9CAB8"/>
<path d="M391 264C392.105 264 393 263.105 393 262C393 260.895 392.105 260 391 260C389.895 260 389 260.895 389 262C389 263.105 389.895 264 391 264Z" fill="#D9CAB8"/>
<path d="M391 241C392.105 241 393 240.105 393 239C393 237.895 392.105 237 391 237C389.895 237 389 237.895 389 239C389 240.105 389.895 241 391 241Z" fill="#D9CAB8"/>
</g>
<g opacity="0.1">
<mask id="mask2_714_3963" style="mask-type:luminance" maskUnits="userSpaceOnUse" x="0" y="0" width="1200" height="800">
<path d="M1200 0H0V800H1200V0Z" fill="white"/>
</mask>
<g mask="url(#mask2_714_3963)">
<path d="M1363.7 516.499C1330.5 459.699 1296.2 401.799 1245.9 359.399C1195.6 316.999 1125.2 292.399 1062.8 313.199C1010.1 330.799 972.3 376.399 925.1 405.799C897.8 422.699 863 434.099 834.1 420.199C804.5 405.899 791.8 370.699 767.4 348.699C744.8 328.299 713.8 320.599 683.7 315.799C653.7 311.099 622.7 308.499 595 296.099C567.3 283.599 542.8 258.299 541.8 227.899C540.7 194.699 567.8 166.299 598.1 152.799C628.4 139.199 662.3 136.499 694.6 128.999C745.8 117.099 794.4 92.1992 831.5 54.9992C868.6 17.7992 893.4 -32.3008 897 -84.8008H1364L1363.7 516.499Z" fill="#FF0066"/>
</g>
</g>
<g opacity="0.1">
<mask id="mask3_714_3963" style="mask-type:luminance" maskUnits="userSpaceOnUse" x="0" y="0" width="1200" height="800">
<path d="M1200 0H0V800H1200V0Z" fill="white"/>
</mask>
<g mask="url(#mask3_714_3963)">
<path d="M-134.4 903.9C-111.4 787.4 -8.00008 691.5 109.8 677.3C169.9 670.1 230.4 682.2 290 692.4C349.6 702.6 411.4 711 470.2 696.6C529 682.2 584.7 639.9 597.8 580.8C604.8 549.2 594.9 510 564.8 498.1C531.2 484.8 496.4 511.8 461.5 520.8C403.3 535.8 343.8 499.2 303.4 454.8C262.9 410.4 232.4 356.5 185.2 319.2C118.7 266.6 26.1999 254.8 -56.3001 273.8C-138.8 292.8 -212.7 339.5 -277.6 394L-134.4 903.9Z" fill="#FF415D"/>
</g>
</g>
<mask id="mask4_714_3963" style="mask-type:luminance" maskUnits="userSpaceOnUse" x="0" y="0" width="1200" height="800">
<path d="M1200 0H0V800H1200V0Z" fill="white"/>
</mask>
<g mask="url(#mask4_714_3963)">
<path d="M-42.3999 635.1C8.2001 651.7 64.3001 651.2 114.5 633.5C174.2 612.5 223.3 569.3 267.6 524.1C311.9 478.9 353.7 430.3 405.6 394.2C457.6 358.1 522.7 335.2 584.4 349.2C623.1 358 657.9 380.6 697 387.5C820.7 409.3 932.3 270.7 1055.2 296.7C1107.7 307.8 1149.9 347.7 1201.3 363.4C1268.5 384 1347.5 356.6 1387.6 298.8" stroke="#62A8B2" stroke-width="2" stroke-miterlimit="10"/>
<path d="M-46.6001 625.9C-3.7001 637.6 43.4999 639 87.7999 630.1C96.4999 628.4 105.1 626.2 113.5 623.7C148.1 613.3 179.1 596.7 207.2 577.3C228.7 562.5 248.6 546.1 268 528.9C279.4 518.8 290.8 508.4 302.5 497.7C329.2 473 356.2 446.1 384.4 421.8C392.5 414.8 400.7 408.1 409 401.7C429.8 385.7 452.4 371.8 476 361.6C509.4 347.2 544.9 340.1 580.3 345.8C618 351.9 652.8 371.7 692.2 377.9C698.1 378.8 703.9 379.4 709.7 379.8C747.3 382.1 783.5 373 819.6 359.1C877.2 336.9 934.2 302.2 992.4 291.7C1012.4 288.1 1032.5 287.4 1053 291C1093.8 298.2 1128.7 321.8 1166.4 339.3C1177.5 344.4 1188.9 349.1 1200.7 352.5C1268.6 372.6 1347.4 349 1387.1 297.6" stroke="#69A3AE" stroke-width="2" stroke-miterlimit="10"/>
<path d="M-50.8 616.8C-7.20005 626.4 40.9999 627.101 86.1999 619.401C95.0999 617.901 103.8 616.101 112.4 613.901C147.6 605.001 179.2 590.901 207.4 574.701C228.9 562.201 248.6 548.6 268.4 533.8C280 525.1 291.7 516 304 506.1C332 483.4 360.3 455.9 388.3 430.4C396.3 423.1 404.3 416 412.5 409.1C432.7 392.1 454.1 376.9 476.4 365.3C508.1 349 541.6 339.201 576.1 342.401C612.7 345.701 647.7 362.9 687.3 368.4C693.2 369.2 699.1 369.8 705 370.1C742.9 372.4 779.1 365.4 815.5 352.9C873.6 333.1 931.6 298.9 990.1 287.4C1010.1 283.5 1030.4 282.3 1050.9 285.2C1091.8 291 1127.3 312.501 1165.6 328.901C1176.9 333.701 1188.4 338.1 1200.3 341.5C1268.8 361 1347.5 341.4 1386.9 296.3" stroke="#719DAA" stroke-width="2" stroke-miterlimit="10"/>
<path d="M-55 607.702C-10.7 615.102 38.5 615.302 84.7 608.802C93.8 607.502 102.7 606.002 111.4 604.202C147.3 596.702 179.5 585.202 207.7 572.102C229.2 562.002 248.8 551.102 268.8 538.602C280.5 531.302 292.7 523.502 305.5 514.402C334.7 493.702 364.5 465.602 392.1 438.902C400 431.302 407.9 423.702 415.8 416.502C435.4 398.402 455.6 382.002 476.7 369.002C506.6 350.702 538.2 337.002 571.8 338.902C607.2 340.902 642.4 354.002 682.3 358.802C688.2 359.502 694.2 360.002 700.1 360.402C738.3 362.702 774.5 357.802 811.1 346.802C869.7 329.402 928.6 295.802 987.6 283.302C1007.7 279.102 1028 277.402 1048.6 279.602C1089.7 284.002 1125.7 303.402 1164.5 318.702C1175.9 323.202 1187.6 327.402 1199.6 330.702C1268.8 349.702 1347.3 333.902 1386.4 295.202" stroke="#7898A6" stroke-width="2" stroke-miterlimit="10"/>
<path d="M-59.2 598.501C-14.2999 603.701 36 603.401 83.1 598.001C92.3 597.001 101.4 595.701 110.3 594.301C146.9 588.301 179.6 579.401 207.9 569.301C229.4 561.601 248.9 553.301 269.1 543.301C281 537.401 293.5 530.901 306.9 522.601C337.4 503.801 368.5 475.201 395.9 447.401C403.8 439.401 411.4 431.501 419.1 423.801C438.1 404.701 457.2 387.001 477 372.601C505.1 352.401 534.7 337.401 567.6 335.401C601.9 333.301 637.3 345.001 677.4 349.201C683.4 349.801 689.4 350.301 695.3 350.601C733.8 352.901 770 350.101 806.9 340.501C866 325.401 925.8 292.401 985.2 278.901C1005.4 274.401 1025.7 272.201 1046.3 273.701C1087.6 276.801 1124.1 294.001 1163.4 308.301C1175 312.501 1186.8 316.501 1198.9 319.701C1268.8 338.201 1347.2 326.301 1385.8 293.901" stroke="#8092A2" stroke-width="2" stroke-miterlimit="10"/>
<path d="M-63.3999 589.4C-17.7999 592.4 33.6001 591.5 81.5001 587.4C90.9001 586.6 100.2 585.6 109.3 584.6C146.6 580.1 179.9 573.7 208.2 566.7C229.7 561.4 249 555.8 269.6 548.2C281.7 543.7 294.5 538.4 308.5 531C340.2 514.2 372.7 485.1 399.9 456C407.7 447.7 415.2 439.4 422.6 431.3C440.9 411.2 458.9 392.2 477.4 376.4C503.7 354.2 531.3 336.7 563.4 332C596.6 327.2 632.1 336.2 672.5 339.7C678.5 340.2 684.6 340.6 690.6 341C729.4 343.3 765.6 342.5 802.8 334.5C862.4 321.6 923.2 289.3 982.9 274.9C1003.2 270.1 1023.5 267.4 1044.2 268.2C1085.7 269.9 1122.7 285 1162.6 298.2C1174.4 302.1 1186.3 305.9 1198.6 309C1269.1 327 1347.4 318.9 1385.7 292.9" stroke="#878D9E" stroke-width="2" stroke-miterlimit="10"/>
<path d="M-67.6001 580.301C-21.4001 581.201 31.0999 579.701 79.9999 576.701C89.5999 576.101 99.0999 575.501 108.3 574.701C146.2 571.701 180.1 567.801 208.5 563.901C230.1 560.901 249.3 558.101 270 552.901C282.3 549.801 295.4 545.801 310 539.201C343 524.301 376.8 494.701 403.8 464.501C411.5 455.801 418.9 447.201 426 438.601C443.7 417.401 460.5 397.101 477.8 380.001C502.4 355.901 527.8 335.801 559.3 328.501C591.3 321.101 627.1 327.301 667.7 330.101C673.8 330.501 679.8 330.901 685.9 331.201C725.1 333.501 761.2 334.801 798.6 328.201C858.7 317.701 920.4 286.001 980.5 270.501C1000.8 265.301 1021.3 262.201 1042 262.301C1083.7 262.601 1121.2 275.601 1161.6 287.701C1173.5 291.301 1185.6 294.801 1198 297.901C1269.2 315.401 1347.3 311.201 1385.3 291.401" stroke="#8F8799" stroke-width="2" stroke-miterlimit="10"/>
<path d="M-71.8 571.101C-24.9 569.801 28.5999 567.801 78.3999 566.001C88.1999 565.601 97.7999 565.301 107.2 564.901C145.8 563.401 180.2 562.001 208.7 561.201C230.3 560.601 249.4 560.601 270.3 557.701C282.8 556.001 296.2 553.301 311.4 547.601C345.6 534.701 380.8 504.501 407.6 473.101C415.3 464.101 422.4 455.001 429.3 446.101C446.4 423.901 462 402.301 478 383.801C500.7 357.701 524.2 335.101 554.9 325.201C585.7 315.201 621.7 318.501 662.6 320.701C668.7 321.001 674.8 321.301 681 321.701C720.5 324.101 756.6 327.401 794.3 322.301C854.9 314.101 917.6 283.001 978 266.601C998.4 261.101 1018.9 257.501 1039.7 256.901C1081.6 255.801 1119.6 266.701 1160.5 277.701C1172.6 281.001 1184.8 284.301 1197.3 287.301C1269.2 304.301 1347.1 303.901 1384.7 290.501" stroke="#968295" stroke-width="2" stroke-miterlimit="10"/>
<path d="M-76 562C-28.4 558.5 26.1 555.9 76.8 555.3C86.8 555.2 96.6 555.1 106.1 555.1C145.4 555.1 180.4 556.2 208.8 558.5C230.4 560.2 249.4 563 270.6 562.4C283.3 562.1 297 560.6 312.8 555.8C348.3 544.8 384.8 514.1 411.4 481.5C419 472.1 426 462.7 432.6 453.3C449.1 430 463.5 407.2 478.3 387.3C499.2 359.2 520.6 334.2 550.7 321.5C580.2 309 616.6 309.4 657.8 310.9C663.9 311.1 670.1 311.4 676.3 311.8C716.1 314.2 752.2 319.6 790.1 315.9C851.2 310.1 914.8 279.6 975.6 262.1C996.1 256.3 1016.6 252.2 1037.5 250.9C1079.5 248.4 1118 257.1 1159.6 267.2C1171.8 270.2 1184.2 273.3 1196.8 276.1C1269.3 292.5 1347.1 296.1 1384.4 289" stroke="#9E7D91" stroke-width="2" stroke-miterlimit="10"/>
<path d="M-80.2 552.901C-32 547.201 23.6 544.101 75.3 544.701C85.4 544.801 95.4 545.101 105.2 545.401C145.2 546.801 180.7 550.501 209.2 555.901C230.8 560.001 249.7 565.501 271.1 567.301C284 568.401 298 568.201 314.4 564.201C351.1 555.201 389.1 524.001 415.3 490.201C422.8 480.501 429.7 470.701 436 460.901C451.8 436.601 465.1 412.501 478.7 391.201C497.9 361.201 517.2 333.801 546.5 318.301C574.8 303.301 611.4 300.801 652.9 301.501C659.1 301.601 665.3 301.801 671.6 302.201C711.7 304.601 747.8 312.001 786 309.901C847.6 306.401 912.1 276.501 973.3 258.101C993.8 252.001 1014.5 247.401 1035.3 245.401C1077.5 241.501 1116.5 248.101 1158.6 257.101C1171 259.701 1183.5 262.701 1196.3 265.401C1269.5 281.301 1347.1 288.701 1384.1 288.001" stroke="#A5778D" stroke-width="2" stroke-miterlimit="10"/>
<path d="M-84.3999 543.702C-35.4999 535.802 21.1001 532.202 73.7001 533.902C84.0001 534.202 94.2001 534.801 104.1 535.501C144.8 538.401 180.8 544.601 209.4 553.101C231 559.601 249.8 567.901 271.4 572.001C284.6 574.501 298.8 575.602 315.8 572.402C353.7 565.302 393.1 533.601 419.1 498.601C426.6 488.601 433.2 478.402 439.3 468.202C454.5 442.902 466.6 417.501 478.9 394.801C496.3 362.801 513.5 333.002 542.1 314.702C569.3 297.302 606.1 291.701 647.8 291.801C654 291.801 660.3 292.002 666.6 292.402C707 294.802 743.1 304.302 781.6 303.702C843.7 302.602 909.2 273.201 970.7 253.801C991.3 247.401 1012 242.301 1032.9 239.601C1075.3 234.301 1114.8 238.802 1157.4 246.702C1169.9 249.002 1182.6 251.702 1195.5 254.402C1269.4 269.802 1346.8 281.102 1383.4 286.702" stroke="#AD7289" stroke-width="2" stroke-miterlimit="10"/>
<path d="M-88.6001 534.601C-39.1001 524.601 18.5999 520.301 72.0999 523.301C82.5999 523.901 92.8999 524.701 103 525.801C144.3 530.201 181 538.901 209.6 550.501C231.2 559.301 250 570.401 271.8 576.901C285.2 580.801 299.8 583.101 317.3 580.801C356.5 575.601 397.2 543.401 423 507.201C430.4 496.801 436.9 486.201 442.8 475.601C457.4 449.201 468.3 422.601 479.4 398.501C495 364.601 510.2 332.501 538.1 311.301C564.1 291.501 601.1 282.901 643.1 282.301C649.4 282.201 655.7 282.301 662.1 282.701C702.9 285.101 738.9 296.701 777.6 297.501C840.2 298.801 906.6 270.001 968.5 249.601C989.2 242.901 1009.9 237.201 1030.9 233.901C1073.5 227.201 1113.5 229.601 1156.7 236.501C1169.4 238.501 1182.2 241.001 1195.2 243.601C1269.7 258.501 1347 273.601 1383.3 285.601" stroke="#B46C85" stroke-width="2" stroke-miterlimit="10"/>
<path d="M-92.8 525.5C-42.6 513.3 16.0999 508.5 70.5999 512.6C81.2999 513.4 91.8 514.5 102 516C144 521.9 181.2 533.1 209.9 547.8C231.5 558.9 250.2 572.9 272.2 581.7C285.8 587.1 300.7 590.6 318.8 589.1C359.2 585.8 401.3 553.1 426.9 515.8C434.2 505.1 440.6 494.1 446.2 483.1C460.1 455.7 470 427.8 479.8 402.3C493.7 366.5 506.9 332 533.9 307.9C558.8 285.7 596 274.1 638.2 272.8C644.5 272.6 650.9 272.7 657.3 273.1C698.4 275.5 734.4 289.2 773.4 291.5C836.6 295.1 903.8 266.9 966.1 245.5C986.8 238.5 1007.6 232.3 1028.7 228.3C1071.5 220.2 1112 220.5 1155.7 226.3C1168.6 228 1181.5 230.3 1194.6 232.8C1269.8 247.2 1347 266.2 1382.9 284.5" stroke="#BC6781" stroke-width="2" stroke-miterlimit="10"/>
<path d="M-97 516.301C-46.2 501.901 13.6 496.601 69 501.901C79.9 502.901 90.6 504.401 101 506.201C143.7 513.601 181.5 527.201 210.2 545.201C231.8 558.701 250.4 575.501 272.6 586.501C286.4 593.301 301.6 598.001 320.3 597.401C361.9 596.101 405.4 562.801 430.8 524.301C438.1 513.201 444.2 501.901 449.6 490.401C462.9 461.901 471.6 432.801 480.1 405.901C492.2 368.101 503.5 331.401 529.7 304.401C553.5 279.901 590.8 265.101 633.3 263.201C639.6 262.901 646.1 262.901 652.5 263.301C693.9 265.801 729.9 281.501 769.2 285.201C832.9 291.201 901.1 263.501 963.7 241.201C984.5 233.801 1005.4 227.201 1026.4 222.501C1069.4 213.001 1110.4 211.201 1154.6 215.901C1167.6 217.301 1180.7 219.401 1194 221.801C1269.9 235.701 1346.9 258.501 1382.5 283.201" stroke="#C3617D" stroke-width="2" stroke-miterlimit="10"/>
<path d="M-101.2 507.201C-49.7 490.601 11.1 484.701 67.4 491.201C78.5 492.501 89.3 494.201 99.9 496.401C143.3 505.201 181.6 521.401 210.4 542.501C232 558.301 250.5 578.001 273 591.301C286.9 599.601 302.5 605.501 321.8 605.701C364.7 606.301 409.5 572.601 434.6 532.901C441.8 521.501 447.8 509.801 452.9 497.901C465.6 468.401 473.1 438.001 480.4 409.701C490.7 370.001 500.1 331.001 525.4 301.101C548.2 274.201 585.6 256.401 628.3 253.801C634.7 253.401 641.1 253.401 647.7 253.801C689.4 256.301 725.4 274.101 764.9 279.301C829.1 287.701 898.2 260.601 961.2 237.201C982.1 229.501 1003 222.401 1024.1 217.001C1067.3 206.001 1108.8 202.201 1153.6 205.901C1166.8 207.001 1180.1 208.801 1193.4 211.201C1269.9 224.501 1346.8 251.301 1382 282.301" stroke="#CB5C79" stroke-width="2" stroke-miterlimit="10"/>
<path d="M-105.4 498.1C-53.1999 479.4 8.70008 472.9 65.9001 480.6C77.1001 482.1 88.2001 484.1 98.9001 486.7C142.9 497 181.9 515.6 210.7 539.9C232.4 558 250.6 580.6 273.4 596.2C287.5 605.9 303.4 613 323.3 614.2C367.4 616.7 413.7 582.5 438.5 541.6C445.6 529.9 451.4 517.7 456.3 505.4C468.4 474.8 474.7 443.2 480.8 413.5C489.4 371.8 496.8 330.5 521.2 297.7C542.9 268.4 580.4 247.6 623.4 244.3C629.8 243.8 636.3 243.7 642.9 244.1C685 246.6 720.9 266.5 760.7 273.1C825.4 283.8 895.5 257.3 958.8 233C979.8 225 1000.7 217.4 1021.9 211.3C1065.2 198.9 1107.3 193 1152.6 195.6C1165.9 196.4 1179.4 198 1192.8 200.2C1270 213 1346.7 243.6 1381.6 280.9" stroke="#D25775" stroke-width="2" stroke-miterlimit="10"/>
<path d="M-109.6 488.901C-56.8001 468.001 6.19993 461.001 64.2999 469.801C75.6999 471.501 86.8999 473.901 97.7999 476.801C142.5 488.601 182 509.701 210.8 537.101C232.5 557.601 250.6 583.001 273.6 600.901C287.9 612.001 304.1 620.401 324.6 622.401C369.9 626.801 417.6 592.101 442.2 550.001C449.3 537.901 454.9 525.401 459.5 512.701C470.9 481.101 476.2 448.201 480.9 417.101C487.7 373.501 493.3 329.901 516.8 294.201C537.5 262.601 575.1 238.601 618.4 234.701C624.9 234.101 631.4 234.001 638.1 234.401C680.5 236.901 716.4 259.001 756.4 267.001C821.6 280.201 892.6 254.201 956.3 228.801C977.3 220.501 998.4 212.401 1019.6 205.601C1063.1 191.801 1105.7 183.801 1151.5 185.301C1165 185.801 1178.6 187.201 1192.1 189.301C1270 201.601 1346.5 236.101 1381.1 279.701" stroke="#DA5170" stroke-width="2" stroke-miterlimit="10"/>
<path d="M-113.8 479.801C-60.3 456.701 3.69996 449.101 62.8 459.201C74.4 461.201 85.7999 463.801 96.8999 467.001C142.3 480.301 182.4 503.901 211.2 534.401C232.9 557.201 250.9 585.401 274.2 605.601C288.7 618.201 305.2 627.701 326.3 630.601C372.9 636.901 421.9 601.701 446.3 558.501C453.3 546.101 458.8 533.201 463.1 520.001C473.9 487.401 478 453.201 481.5 420.701C486.5 375.101 490.3 329.301 512.8 290.601C532.6 256.601 570.1 229.601 613.7 224.901C620.2 224.201 626.8 224.001 633.5 224.401C676.2 226.901 712.1 251.101 752.4 260.501C818.1 276.101 890 250.601 954.1 224.301C975.2 215.701 996.3 207.001 1017.5 199.601C1061.2 184.301 1104.3 174.301 1150.7 174.701C1164.3 174.801 1178.1 176.101 1191.7 178.101C1270.2 189.901 1346.6 228.301 1380.8 278.201" stroke="#E14C6C" stroke-width="2" stroke-miterlimit="10"/>
<path d="M-117.9 470.701C-63.7999 445.401 1.30011 437.301 61.3001 448.501C73.1001 450.701 84.6001 453.601 95.9001 457.201C142 472.001 182.6 498.101 211.5 531.701C233.3 556.901 251.1 587.901 274.6 610.401C289.3 624.401 306.1 635.101 327.8 638.901C375.6 647.001 426 611.501 450.2 567.001C457.1 554.201 462.4 541.001 466.5 527.401C476.7 493.701 479.6 458.301 481.8 424.401C485 376.901 487.1 328.701 508.6 287.201C527.4 250.801 565 220.701 608.8 215.401C615.3 214.601 622 214.401 628.8 214.801C671.8 217.301 707.7 243.601 748.3 254.501C814.5 272.501 887.4 247.501 951.9 220.201C973.1 211.301 994.2 202.101 1015.5 194.001C1059.3 177.301 1103 165.101 1149.9 164.601C1163.7 164.401 1177.6 165.401 1191.4 167.401C1270.6 178.701 1346.8 220.901 1380.7 277.201" stroke="#E94668" stroke-width="2" stroke-miterlimit="10"/>
<path d="M-122.1 461.5C-67.3001 434.1 -1.20011 425.4 59.6999 437.8C71.6999 440.2 83.3999 443.5 94.7999 447.4C141.5 463.7 182.8 492.3 211.7 529C233.5 556.6 251.1 590.4 274.9 615.2C289.7 630.6 306.9 642.6 329.2 647.2C378.3 657.3 430 621.2 454 575.6C460.9 562.5 466 548.8 469.8 534.8C479.4 500.1 481.1 463.3 482.1 428.1C483.5 378.6 483.8 328.2 504.3 283.7C522.2 244.9 559.7 211.8 603.8 205.8C610.4 204.9 617.1 204.6 623.9 205C667.2 207.6 703.1 235.9 743.9 248.3C810.6 268.6 884.4 244.3 949.3 216C970.5 206.8 991.7 197.1 1013.1 188.3C1057.1 170.2 1101.3 155.9 1148.7 154.3C1162.7 153.8 1176.7 154.6 1190.6 156.5C1270.5 167.3 1346.6 213.4 1380.1 276" stroke="#F04164" stroke-width="2" stroke-miterlimit="10"/>
<path d="M-126.3 452.402C-70.9 422.802 -3.70008 413.602 58.1999 427.102C70.2999 429.802 82.3 433.302 93.8 437.602C141.2 455.302 183 486.502 212 526.302C233.8 556.202 251.3 592.902 275.4 620.002C290.4 636.902 308 650.102 330.8 655.502C381.1 667.502 434.2 630.902 457.9 584.102C464.7 570.702 469.7 556.602 473.3 542.202C482.2 506.402 482.8 468.402 482.6 431.802C482.3 380.402 480.8 327.602 500.2 280.302C517.2 239.102 554.7 203.002 599 196.302C605.6 195.302 612.4 195.002 619.3 195.402C663 198.002 698.8 228.402 739.9 242.202C807.1 264.902 881.9 241.102 947.1 211.902C968.4 202.402 989.6 192.202 1011.1 182.702C1055.3 163.202 1100 146.802 1148 144.102C1162.1 143.302 1176.3 143.902 1190.3 145.702C1270.8 155.902 1346.8 205.902 1379.9 274.902" stroke="#F83B60" stroke-width="2" stroke-miterlimit="10"/>
<path d="M-130.5 443.301C-74.4 411.501 -6.19999 401.701 56.6 416.401C119.4 431.101 176.1 470.201 212.2 523.601C247.6 576.001 271.2 647.301 332.2 663.801C383.8 677.701 438.3 640.601 461.7 592.601C485.1 544.601 484.9 488.801 482.8 435.401C480.7 382.001 477.5 326.901 495.9 276.801C514.3 226.701 561.1 182.501 614.4 185.601C658.4 188.201 694.2 220.701 735.6 236.001C803.3 261.001 879 237.801 944.6 207.601C1010.2 177.401 1074.9 139.401 1146.8 133.801C1243 126.401 1340.8 185.201 1379.3 273.601" stroke="#FF365C" stroke-width="2" stroke-miterlimit="10"/>
<path d="M-130.5 437.901C-74.9 405.801 -7.29998 395.401 55.3 409.001C79.3 414.301 102.5 423.001 124.1 434.801C158.7 453.701 189 480.401 211.7 512.501C239.8 552.101 260.9 603.001 296.7 632.301C307.1 640.801 318.7 647.401 332.1 651.401C382.6 666.601 435.5 633.101 460.6 588.001C479.6 553.701 486.2 513.401 487.9 472.801C488.5 459.601 488.6 446.301 488.6 433.201C488.6 379.801 487.6 324.601 507.4 274.501C526.8 225.301 573.1 181.901 626 184.301C669.7 186.201 705.8 217.101 747 232.201C814.4 257.001 888.5 237.301 952.5 211.101C959.7 208.201 966.8 205.101 973.9 202.101C1030.6 177.801 1087.1 151.201 1149.6 148.601C1165.4 147.901 1181.4 149.101 1197.1 151.701C1274.7 165.001 1348.1 216.801 1381.5 285.201" stroke="#FF3B5C" stroke-width="2" stroke-miterlimit="10"/>
<path d="M-130.5 432.402C-75.4 400.002 -8.39997 388.902 54 401.502C77.9 406.402 101.1 414.702 122.7 426.002C157.3 444.202 187.9 470.002 211.1 501.302C239.8 539.902 261.6 589.702 297.1 619.302C307.3 627.802 318.7 634.602 331.8 639.002C381.3 655.502 432.7 625.602 459.2 583.302C479.6 551.002 488.4 511.002 491.8 470.402C492.9 457.202 493.6 443.902 494.1 430.802C496.3 377.302 497.5 322.102 518.6 272.102C538.9 223.902 584.8 181.302 637.2 182.802C680.6 184.002 716.9 213.202 758 228.202C825 252.702 897.6 236.602 960.1 214.402C967.1 211.902 974.1 209.402 981 206.802C1036.2 186.202 1091.1 163.502 1152.2 163.202C1167.7 163.102 1183.3 164.702 1198.7 167.802C1275 182.902 1348.7 233.502 1383.5 296.702" stroke="#FF415D" stroke-width="2" stroke-miterlimit="10"/>
<path d="M-130.4 427.001C-75.8999 394.401 -9.39989 382.601 52.8001 394.101C76.7001 398.501 99.8001 406.401 121.4 417.301C156.1 434.701 186.9 459.701 210.6 490.201C239.9 527.801 262.5 576.501 297.6 606.401C307.7 615.001 318.9 621.901 331.7 626.601C380.2 644.301 430 618.001 458.1 578.701C479.8 548.301 491 508.601 496 468.201C497.7 455.001 498.9 441.701 499.9 428.601C504.2 375.001 507.7 319.801 530.1 269.801C551.3 222.601 596.8 180.701 648.8 181.501C692 182.001 728.5 209.601 769.4 224.501C836 248.801 907.1 236.201 968 218.101C974.8 216.101 981.6 214.001 988.4 211.801C1042.2 194.801 1095.4 176.101 1155 178.201C1170.1 178.701 1185.4 180.801 1200.5 184.201C1275.4 201.101 1349.5 250.501 1385.7 308.501" stroke="#FF465D" stroke-width="2" stroke-miterlimit="10"/>
<path d="M-130.4 421.6C-76.3999 388.7 -10.4999 376.2 51.5001 386.8C75.3001 390.8 98.4001 398.3 120.1 408.6C154.9 425.2 185.9 449.4 210.1 479.1C240 515.7 263.4 563.3 298.1 593.5C308 602.1 319 609.2 331.5 614.2C378.9 633.2 427.4 610.4 456.8 574C480 545.4 493.4 506.2 500 465.8C502.2 452.6 503.9 439.4 505.5 426.2C512 372.6 517.6 317.3 541.4 267.4C563.5 221.2 608.6 180.1 660.1 180C703 179.9 739.7 205.8 780.5 220.5C846.8 244.5 916.3 235.5 975.7 221.4C982.3 219.8 988.9 218.2 995.5 216.5C1047.8 203.2 1099.4 188.4 1157.6 192.8C1172.4 193.9 1187.3 196.5 1202.2 200.3C1275.7 219 1350.2 267.2 1387.7 320" stroke="#FF4C5E" stroke-width="2" stroke-miterlimit="10"/>
<path d="M-130.4 416.201C-76.8999 383.001 -11.5999 369.901 50.2001 379.401C73.9001 383.001 97.0001 390.001 118.7 399.901C153.6 415.801 184.9 439.101 209.5 468.001C240.1 503.701 264.2 550.101 298.5 580.601C308.3 589.301 319.1 596.601 331.2 601.901C377.6 622.101 424.7 602.901 455.5 569.501C480.1 542.801 495.7 503.901 504.1 463.601C506.8 450.401 509.1 437.201 511.3 424.001C519.9 370.301 527.7 315.001 553 265.101C575.9 219.801 620.7 179.501 671.8 178.701C714.5 177.901 751.4 202.101 792 216.801C857.9 240.601 925.9 235.001 983.7 225.001C990.2 223.901 996.6 222.701 1003 221.501C1053.9 211.801 1103.8 201.001 1160.6 207.701C1175 209.401 1189.6 212.401 1204.2 216.601C1276.3 237.101 1351.2 284.101 1390.1 331.701" stroke="#FF515E" stroke-width="2" stroke-miterlimit="10"/>
<path d="M-130.4 410.801C-77.3999 377.301 -12.5999 363.502 48.8001 372.002C72.4001 375.202 95.5001 381.702 117.3 391.202C152.2 406.302 183.8 428.902 208.9 456.902C240.1 491.602 265 536.902 298.9 567.702C308.6 576.402 319.1 583.901 331 589.501C376.4 611.001 422.1 595.301 454.3 564.801C480.5 539.901 498.2 501.502 508.2 461.202C511.5 448.102 514.3 434.801 517 421.601C527.8 367.901 537.7 312.502 564.4 262.702C588.2 218.402 632.6 178.901 683.2 177.301C725.6 175.801 762.7 198.402 803.2 212.902C868.7 236.402 935.2 234.402 991.5 228.402C997.8 227.702 1004 227.002 1010.3 226.202C1059.7 220.202 1108 213.301 1163.3 222.301C1177.3 224.601 1191.6 228.101 1205.9 232.601C1276.6 254.901 1351.9 300.601 1392.1 343.101" stroke="#FF575F" stroke-width="2" stroke-miterlimit="10"/>
<path d="M-130.3 405.301C-77.9 371.501 -13.6001 357.101 47.5999 364.501C71.0999 367.301 94.2 373.401 116 382.301C151 396.601 182.8 418.401 208.5 445.601C240.3 479.301 265.9 523.501 299.5 554.601C309 563.401 319.4 571.001 330.9 576.901C375.2 599.701 419.8 587.601 453.1 560.001C480.9 537.001 500.7 499.001 512.3 458.801C516.1 445.701 519.5 432.401 522.7 419.201C535.7 365.401 547.6 310.001 575.8 260.201C600.4 216.801 644.5 178.201 694.7 175.701C736.8 173.601 774.1 194.501 814.5 208.801C879.7 232.001 944.6 233.601 999.3 231.601C1005.4 231.401 1011.5 231.101 1017.5 230.801C1065.4 228.401 1112.1 225.401 1166 236.801C1179.7 239.701 1193.6 243.701 1207.6 248.601C1277 272.701 1352.6 317.201 1394.2 354.501" stroke="#FF5C5F" stroke-width="2" stroke-miterlimit="10"/>
<path d="M-130.3 399.902C-78.4 365.902 -14.7 350.702 46.3 357.102C69.8 359.502 92.7999 365.102 114.6 373.602C149.7 387.202 181.7 408.102 207.9 434.502C240.3 467.202 266.7 510.302 299.9 541.702C309.3 550.502 319.4 558.302 330.7 564.602C374 588.702 417.4 580.202 451.9 555.402C481.3 534.302 503.1 496.602 516.4 456.502C520.8 443.402 524.7 430.102 528.4 416.902C543.5 363.102 557.5 307.602 587.2 257.902C612.5 215.502 656.4 177.702 706.2 174.402C748.1 171.602 785.6 190.802 825.8 205.102C890.6 228.102 954 233.202 1007.2 235.302C1013.1 235.502 1019 235.702 1024.9 235.902C1071.4 237.202 1116.4 238.102 1168.8 251.902C1182.1 255.402 1195.7 259.902 1209.5 265.102C1277.5 291.002 1353.5 334.302 1396.4 366.402" stroke="#FF6160" stroke-width="2" stroke-miterlimit="10"/>
<path d="M-130.3 394.502C-78.9 360.202 -15.8 344.402 45 349.702C68.4 351.702 91.4 356.902 113.3 364.902C148.4 377.702 180.7 397.802 207.4 423.402C240.4 455.102 267.5 497.102 300.4 528.802C309.6 537.702 319.6 545.602 330.5 552.202C372.8 577.602 415.1 572.702 450.6 550.802C481.7 531.602 505.5 494.302 520.4 454.202C525.3 441.102 529.7 427.902 534 414.602C551.3 360.702 567.3 305.102 598.5 255.502C624.6 214.002 668.2 177.102 717.5 172.902C759.1 169.402 796.8 187.002 836.9 201.102C901.3 223.802 963.2 232.502 1014.9 238.602C1020.7 239.302 1026.4 239.902 1032.1 240.502C1077.1 245.402 1120.5 250.302 1171.5 266.402C1184.4 270.502 1197.7 275.402 1211.2 281.002C1277.8 308.702 1354.1 350.802 1398.5 377.702" stroke="#FF6760" stroke-width="2" stroke-miterlimit="10"/>
<path d="M-130.3 389.102C-79.4 354.502 -16.9001 338.002 43.6999 342.302C66.9999 343.902 89.8999 348.602 111.9 356.102C147.1 368.102 179.6 387.402 206.8 412.302C240.5 443.002 268.3 483.902 300.8 515.902C309.9 524.802 319.6 533.002 330.3 539.802C371.5 566.402 412.8 565.302 449.4 546.102C482.2 528.902 508 491.802 524.5 451.902C529.9 438.802 534.9 425.602 539.7 412.302C559.1 358.402 577.2 302.702 609.9 253.202C636.7 212.602 680.1 176.502 729 171.602C770.3 167.502 808.3 183.402 848.2 197.302C912.3 219.802 972.5 231.902 1022.7 242.102C1028.3 243.202 1033.8 244.302 1039.3 245.402C1082.9 254.002 1124.6 262.802 1174.2 281.202C1186.8 285.902 1199.7 291.302 1212.9 297.302C1278.1 326.802 1354.8 367.602 1400.5 389.402" stroke="#FF6C61" stroke-width="2" stroke-miterlimit="10"/>
<path d="M-130.2 383.701C-79.9 348.801 -17.8999 331.701 42.5001 334.901C65.7001 336.101 88.6 340.301 110.6 347.401C145.9 358.701 178.7 377.201 206.3 401.201C240.6 430.901 269.2 470.701 301.3 502.901C310.2 511.901 319.8 520.201 330.1 527.401C370.3 555.301 410.6 557.901 448.1 541.501C482.7 526.401 510.3 489.501 528.5 449.601C534.5 436.601 540 423.301 545.3 410.001C566.9 356.001 587 300.201 621.3 250.801C648.8 211.101 692 175.901 740.4 170.201C781.5 165.401 819.6 179.601 859.4 193.501C923.1 215.701 981.8 231.401 1030.5 245.601C1035.9 247.201 1041.3 248.701 1046.6 250.301C1088.7 262.501 1128.8 275.301 1176.9 296.001C1189.1 301.301 1201.7 307.201 1214.7 313.501C1278.6 344.801 1355.6 384.401 1402.7 400.901" stroke="#FF7261" stroke-width="2" stroke-miterlimit="10"/>
<path d="M-130.2 378.3C-80.4 343.2 -19 325.3 41.2 327.5C64.3 328.3 87.2 332.1 109.3 338.6C144.7 349.1 177.7 366.8 205.8 390C240.7 418.7 270.1 457.4 301.8 489.9C310.6 498.9 319.9 507.4 329.9 514.9C369.1 544.2 408.4 550.6 446.9 536.7C483.3 523.7 512.8 486.9 532.7 447.1C539.2 434.1 545.3 420.8 551.1 407.5C574.8 353.5 596.9 297.6 632.8 248.3C661 209.5 704 175.1 752 168.6C792.8 163.1 831.1 175.7 870.8 189.4C934.1 211.4 991.3 230.6 1038.4 248.8C1043.7 250.8 1048.8 252.8 1054 254.8C1094.6 270.7 1133.1 287.4 1179.8 310.5C1191.7 316.4 1203.9 322.8 1216.6 329.5C1279.1 362.6 1356.5 401 1405 412.3" stroke="#FF7762" stroke-width="2" stroke-miterlimit="10"/>
<path d="M-130.2 372.801C-80.9 337.401 -20.1 318.901 39.9 320.001C62.9 320.401 85.8 323.701 107.9 329.801C143.3 339.501 176.6 356.401 205.2 378.801C240.7 406.601 270.9 444.101 302.2 476.901C310.9 486.001 320 494.601 329.7 502.401C367.8 533.001 406.2 543.201 445.6 532.001C483.8 521.101 515.2 484.501 536.7 444.801C543.8 431.801 550.4 418.501 556.7 405.201C582.6 351.101 606.6 295.101 644.1 245.901C673 208.001 715.8 174.501 763.3 167.201C803.9 161.001 842.4 172.001 881.8 185.601C944.8 207.301 1000.4 230.101 1046 252.401C1051.1 254.901 1056.1 257.301 1061 259.801C1100.2 279.301 1136.9 300.001 1182.2 325.401C1193.7 331.901 1205.6 338.701 1218 345.801C1279.1 380.701 1356.9 417.901 1406.7 424.001" stroke="#FF7D62" stroke-width="2" stroke-miterlimit="10"/>
<path d="M-130.1 367.401C-81.3001 331.701 -21.1001 312.501 38.6999 312.601C61.6999 312.601 84.4999 315.501 106.6 321.101C142.1 330.101 175.6 346.101 204.7 367.701C240.9 394.501 271.8 430.901 302.7 464.001C311.2 473.101 320.1 482.001 329.5 490.101C366.6 522.001 404 536.201 444.4 527.401C484.3 518.801 517.6 482.101 540.8 442.501C548.4 429.501 555.5 416.301 562.5 402.901C590.5 348.801 616.5 292.501 655.6 243.601C685.2 206.601 727.8 173.901 774.9 165.801C815.2 158.901 853.9 168.301 893.2 181.701C955.8 203.101 1009.9 229.401 1053.9 255.801C1058.8 258.701 1063.6 261.701 1068.4 264.601C1106.1 287.801 1141.2 312.401 1185.1 340.101C1196.2 347.201 1207.8 354.501 1219.9 361.901C1279.6 398.601 1357.8 434.501 1409 435.501" stroke="#FF8263" stroke-width="2" stroke-miterlimit="10"/>
<path d="M-130.1 362.002C-81.9001 326.002 -22.2001 306.202 37.3999 305.202C60.2999 304.802 83.0999 307.202 105.3 312.302C140.9 320.502 174.6 335.702 204.2 356.502C241 382.302 272.7 417.602 303.2 451.002C311.6 460.202 320.3 469.202 329.4 477.602C365.4 510.802 401.8 529.002 443.3 522.702C485 516.402 520.2 479.702 545 440.102C553.1 427.102 560.8 413.902 568.3 400.502C598.5 346.302 626.4 289.902 667.1 241.102C697.3 204.902 739.8 173.102 786.5 164.302C826.5 156.702 865.5 164.402 904.6 177.702C966.9 198.902 1019.4 228.702 1061.9 259.102C1066.6 262.502 1071.3 265.902 1075.8 269.202C1112.1 296.102 1145.5 324.602 1188 354.602C1198.8 362.302 1210 370.102 1221.9 377.902C1280.3 416.402 1358.8 451.102 1411.3 446.902" stroke="#FF8763" stroke-width="2" stroke-miterlimit="10"/>
<path d="M-130.1 356.6C-82.4001 320.3 -23.3001 299.801 36.0999 297.801C58.8999 297.001 81.6999 299 103.9 303.6C139.6 311 173.6 325.401 203.6 345.401C241 370.201 273.5 404.4 303.6 438.1C311.9 447.3 320.3 456.501 329.1 465.201C364 499.701 399.4 522.001 441.9 518.001C485.3 514.001 522.5 477.301 548.9 437.701C557.6 424.801 565.8 411.5 573.8 398.1C606.1 343.8 635.9 287.201 678.3 238.701C709.1 203.401 751.5 172.401 797.7 162.901C837.4 154.601 876.6 160.701 915.6 173.901C977.5 194.801 1028.5 228.2 1069.4 262.6C1074 266.4 1078.4 270.3 1082.8 274.1C1117.6 304.6 1149.4 337.001 1190.4 369.501C1200.8 377.701 1211.7 386.001 1223.3 394.201C1280.3 434.401 1359.2 468 1413.1 458.6" stroke="#FF8D64" stroke-width="2" stroke-miterlimit="10"/>
<path d="M-130.1 351.201C-82.9001 314.701 -24.4001 293.501 34.7999 290.401C57.4999 289.201 80.2999 290.701 102.6 294.901C138.3 301.601 172.6 315.201 203.1 334.301C241.1 358.101 274.4 391.201 304.1 425.201C312.2 434.501 320.4 443.901 329 452.901C362.9 488.701 397.2 515.001 440.8 513.501C486 511.901 525 475.001 553.1 435.601C562.3 422.701 571.1 409.401 579.6 396.001C614.1 341.701 645.8 284.901 689.8 236.501C721.3 202.001 763.5 171.901 809.3 161.601C848.8 152.601 888.1 157.101 927 170.101C988.5 190.801 1038 227.701 1077.4 266.101C1081.8 270.401 1086.1 274.701 1090.3 279.001C1123.6 313.201 1153.8 349.501 1193.4 384.301C1203.5 393.101 1214.1 401.901 1225.3 410.501C1280.9 452.501 1360.2 484.901 1415.4 470.301" stroke="#FF9264" stroke-width="2" stroke-miterlimit="10"/>
<path d="M-130 345.802C-83.3 309.002 -25.4 287.102 33.5 283.002C56.1 281.402 78.9 282.402 101.2 286.102C137 292.002 171.5 304.802 202.5 323.102C241.1 345.902 275.1 377.802 304.5 412.202C312.5 421.502 320.5 431.102 328.7 440.402C361.5 477.602 394.9 505.902 439.4 508.802C486.1 511.802 527.3 472.602 557 433.202C566.8 420.302 576 407.002 585.1 393.602C621.7 339.202 655.3 282.102 701.1 234.102C733.2 200.402 775.3 171.302 820.6 160.202C859.8 150.502 899.4 153.302 938.1 166.302C999.3 186.702 1047.2 227.202 1085 269.602C1089.2 274.302 1093.3 279.102 1097.3 283.802C1129.2 321.602 1157.7 361.902 1195.8 399.002C1205.5 408.402 1215.8 417.702 1226.8 426.602C1281 470.402 1360.7 501.602 1417.3 481.802" stroke="#FF9865" stroke-width="2" stroke-miterlimit="10"/>
<path d="M-130 340.301C-83.9 303.201 -26.5 280.701 32.2 275.501C54.7 273.501 77.5 274.101 99.8 277.301C135.7 282.501 170.4 294.401 201.9 311.901C241.2 333.701 275.9 364.501 304.9 399.201C312.7 408.601 320.5 418.301 328.4 427.901C360.1 466.401 392.3 500.901 438.1 504.001C486.6 507.301 529.7 470.001 561.1 430.701C571.4 417.801 581.2 404.5 590.8 391.1C629.6 336.7 665 279.3 712.5 231.6C745.2 198.7 787.2 170.601 832.1 158.601C871.1 148.201 910.8 149.401 949.4 162.201C1010.2 182.401 1056.6 226.301 1092.9 272.901C1096.9 278.101 1100.9 283.301 1104.7 288.501C1135.1 330.001 1162 374.2 1198.7 413.6C1208 423.6 1218 433.4 1228.7 442.6C1281.5 488.2 1361.5 518.101 1419.5 493.201" stroke="#FF9D65" stroke-width="2" stroke-miterlimit="10"/>
<path d="M-130 334.9C-84.4 297.5 -27.6 274.3 30.9 268.1C53.4 265.7 76.1 265.8 98.5 268.5C134.4 272.9 169.4 284 201.4 300.7C241.3 321.5 276.8 351.2 305.4 386.2C313.1 395.6 320.6 405.6 328.3 415.5C358.9 455.4 390 493.9 436.9 499.4C487 505.2 532.1 467.7 565.2 428.5C576 415.6 586.4 402.4 596.5 388.9C637.4 334.4 674.7 276.7 723.9 229.3C757.2 197.2 799.1 170 843.5 157.3C882.2 146.2 922.2 145.8 960.6 158.4C1021 178.3 1065.9 225.8 1100.6 276.4C1104.5 282 1108.2 287.7 1111.9 293.4C1140.9 338.5 1166.1 386.7 1201.4 428.4C1210.4 439 1220 449.2 1230.4 458.9C1281.9 506.3 1362.2 535 1421.6 504.9" stroke="#FFA366" stroke-width="2" stroke-miterlimit="10"/>
<path d="M-129.9 329.501C-67.4999 277.401 16.3001 251.601 97.2001 259.801C178.1 267.901 255.1 309.801 305.9 373.301C343.9 420.901 375.6 485.101 435.7 494.701C487.3 503.001 534.6 465.201 569.3 426.101C626.7 361.301 671.8 285.601 735.3 226.901C798.9 168.201 889.7 127.601 971.9 154.501C1038.7 176.301 1084.7 237.001 1119.2 298.201C1153.7 359.401 1182.1 425.801 1232.2 475.101C1282.3 524.401 1363 551.801 1423.8 516.501" stroke="#FFA866" stroke-width="2" stroke-miterlimit="10"/>
</g>
</g>
<defs>
<clipPath id="clip0_714_3963">
<rect width="1200" height="800" fill="white"/>
</clipPath>
</defs>
</svg>
